<mxfile host="app.diagrams.net" modified="2022-03-08T12:36:40.868Z" agent="5.0 (Windows NT 10.0; Win64; x64) AppleWebKit/537.36 (KHTML, like Gecko) Chrome/92.0.4515.131 Safari/537.36" etag="BeoZ0gzNZM5jJjd1jh1K" version="16.6.5" type="github" pages="5">
  <diagram id="5Kmb7W5pnlHNhv1GbmnW" name="Page-3">
    <mxGraphModel dx="2823" dy="2285" grid="1" gridSize="10" guides="1" tooltips="1" connect="1" arrows="1" fold="1" page="1" pageScale="1" pageWidth="827" pageHeight="1169" math="0" shadow="0">
      <root>
        <mxCell id="IFCaMPKQP4HP2tQFBtrL-0" />
        <mxCell id="IFCaMPKQP4HP2tQFBtrL-1" parent="IFCaMPKQP4HP2tQFBtrL-0" />
        <mxCell id="U0625dc-84SEc-x4zgt3-0" value="" style="rounded=0;whiteSpace=wrap;html=1;fontSize=15;fillColor=#ffcccc;strokeColor=#36393d;fontStyle=0;" vertex="1" parent="IFCaMPKQP4HP2tQFBtrL-1">
          <mxGeometry x="-139" y="-301" width="330" height="260" as="geometry" />
        </mxCell>
        <mxCell id="U0625dc-84SEc-x4zgt3-1" value="" style="rounded=0;whiteSpace=wrap;html=1;fontSize=15;fillColor=#b1ddf0;strokeColor=#10739e;fontStyle=0;shadow=0;" vertex="1" parent="IFCaMPKQP4HP2tQFBtrL-1">
          <mxGeometry x="231" y="-301" width="350" height="260" as="geometry" />
        </mxCell>
        <mxCell id="U0625dc-84SEc-x4zgt3-2" value="&lt;table border=&quot;1&quot; width=&quot;100%&quot; cellpadding=&quot;4&quot; style=&quot;width: 100%; height: 100%; border-collapse: collapse; font-size: 15px;&quot;&gt;&lt;tbody style=&quot;font-size: 15px;&quot;&gt;&lt;tr style=&quot;background-color: rgb(167, 201, 66); color: rgb(255, 255, 255); border: 1px solid rgb(152, 191, 33); font-size: 15px;&quot;&gt;&lt;th align=&quot;left&quot; style=&quot;font-size: 15px;&quot;&gt;tenant_id&lt;/th&gt;&lt;th align=&quot;left&quot; style=&quot;font-size: 15px;&quot;&gt;service&lt;/th&gt;&lt;th align=&quot;left&quot; style=&quot;font-size: 15px;&quot;&gt;func&lt;/th&gt;&lt;td style=&quot;font-size: 15px;&quot;&gt;&lt;span style=&quot;font-size: 15px;&quot;&gt;switch&lt;/span&gt;&lt;/td&gt;&lt;/tr&gt;&lt;tr style=&quot;border: 1px solid rgb(152, 191, 33); font-size: 15px;&quot;&gt;&lt;td style=&quot;font-size: 15px;&quot;&gt;1&lt;/td&gt;&lt;td style=&quot;font-size: 15px;&quot;&gt;ApiServer&lt;/td&gt;&lt;td style=&quot;font-size: 15px;&quot;&gt;GetUploadSign&lt;/td&gt;&lt;td style=&quot;font-size: 15px;&quot;&gt;on&lt;/td&gt;&lt;/tr&gt;&lt;tr style=&quot;background-color: rgb(234, 242, 211); border: 1px solid rgb(152, 191, 33); font-size: 15px;&quot;&gt;&lt;td style=&quot;font-size: 15px;&quot;&gt;1&lt;/td&gt;&lt;td style=&quot;font-size: 15px;&quot;&gt;ApiServer&lt;/td&gt;&lt;td style=&quot;font-size: 15px;&quot;&gt;CopyObjFromUrl&lt;/td&gt;&lt;td style=&quot;font-size: 15px;&quot;&gt;on&lt;/td&gt;&lt;/tr&gt;&lt;tr style=&quot;border: 1px solid rgb(152, 191, 33); font-size: 15px;&quot;&gt;&lt;td style=&quot;font-size: 15px;&quot;&gt;2&lt;/td&gt;&lt;td style=&quot;font-size: 15px;&quot;&gt;CMCServer&lt;/td&gt;&lt;td style=&quot;font-size: 15px;&quot;&gt;GetUserList&lt;/td&gt;&lt;td style=&quot;font-size: 15px;&quot;&gt;on&lt;/td&gt;&lt;/tr&gt;&lt;/tbody&gt;&lt;/table&gt;" style="text;html=1;strokeColor=#c0c0c0;fillColor=#ffffff;overflow=fill;rounded=0;fontSize=15;fontStyle=0" vertex="1" parent="IFCaMPKQP4HP2tQFBtrL-1">
          <mxGeometry x="-54.75" y="380" width="415.75" height="160" as="geometry" />
        </mxCell>
        <mxCell id="U0625dc-84SEc-x4zgt3-3" value="Openfaas" style="swimlane;fontSize=15;fontStyle=0;fillColor=#f8cecc;gradientColor=#ea6b66;strokeColor=#b85450;shadow=0;strokeWidth=2;swimlaneLine=0;" vertex="1" parent="IFCaMPKQP4HP2tQFBtrL-1">
          <mxGeometry x="-109" y="-271" width="160" height="200" as="geometry" />
        </mxCell>
        <mxCell id="U0625dc-84SEc-x4zgt3-4" value="云函数B&#39;" style="rounded=0;whiteSpace=wrap;html=1;fontSize=15;fontStyle=0" vertex="1" parent="U0625dc-84SEc-x4zgt3-3">
          <mxGeometry x="30" y="40" width="100" height="30" as="geometry" />
        </mxCell>
        <mxCell id="U0625dc-84SEc-x4zgt3-5" value="云函数C&#39;" style="rounded=0;whiteSpace=wrap;html=1;fontSize=15;fontStyle=0" vertex="1" parent="U0625dc-84SEc-x4zgt3-3">
          <mxGeometry x="30" y="90" width="100" height="30" as="geometry" />
        </mxCell>
        <mxCell id="U0625dc-84SEc-x4zgt3-6" value="......" style="rounded=0;whiteSpace=wrap;html=1;fontSize=15;fontStyle=0" vertex="1" parent="U0625dc-84SEc-x4zgt3-3">
          <mxGeometry x="30" y="140" width="100" height="30" as="geometry" />
        </mxCell>
        <mxCell id="U0625dc-84SEc-x4zgt3-7" style="edgeStyle=orthogonalEdgeStyle;rounded=0;orthogonalLoop=1;jettySize=auto;html=1;exitX=0;exitY=0.5;exitDx=0;exitDy=0;entryX=1;entryY=0.5;entryDx=0;entryDy=0;fontSize=15;fontStyle=0" edge="1" parent="IFCaMPKQP4HP2tQFBtrL-1" source="U0625dc-84SEc-x4zgt3-8" target="U0625dc-84SEc-x4zgt3-3">
          <mxGeometry relative="1" as="geometry" />
        </mxCell>
        <mxCell id="U0625dc-84SEc-x4zgt3-8" value="云函数平&lt;br&gt;台代理网&lt;br&gt;关" style="rounded=0;whiteSpace=wrap;html=1;fontSize=15;fontStyle=0" vertex="1" parent="IFCaMPKQP4HP2tQFBtrL-1">
          <mxGeometry x="101" y="-218" width="73" height="94" as="geometry" />
        </mxCell>
        <mxCell id="U0625dc-84SEc-x4zgt3-9" value="服务A" style="swimlane;startSize=20;horizontal=1;containerType=tree;fontSize=15;swimlaneFillColor=none;fontStyle=0;strokeColor=#0e8088;fillColor=#b0e3e6;" vertex="1" parent="IFCaMPKQP4HP2tQFBtrL-1">
          <mxGeometry x="-670" y="60" width="490" height="260" as="geometry" />
        </mxCell>
        <mxCell id="U0625dc-84SEc-x4zgt3-10" value="云函数网关插件" style="swimlane;fontSize=15;fontStyle=0;fillColor=#dae8fc;gradientColor=#7ea6e0;strokeColor=#6c8ebf;swimlaneFillColor=#CCE5FF;startSize=23;" vertex="1" parent="U0625dc-84SEc-x4zgt3-9">
          <mxGeometry x="110" y="30" width="260" height="210" as="geometry" />
        </mxCell>
        <mxCell id="U0625dc-84SEc-x4zgt3-11" style="edgeStyle=orthogonalEdgeStyle;rounded=0;orthogonalLoop=1;jettySize=auto;html=1;exitX=1;exitY=0.5;exitDx=0;exitDy=0;entryX=0;entryY=0.5;entryDx=0;entryDy=0;fontSize=15;fontStyle=0" edge="1" parent="U0625dc-84SEc-x4zgt3-10" source="U0625dc-84SEc-x4zgt3-12" target="U0625dc-84SEc-x4zgt3-15">
          <mxGeometry relative="1" as="geometry" />
        </mxCell>
        <mxCell id="U0625dc-84SEc-x4zgt3-12" value="查询路由开关" style="rounded=0;whiteSpace=wrap;html=1;fontSize=15;fontStyle=0" vertex="1" parent="U0625dc-84SEc-x4zgt3-10">
          <mxGeometry x="20" y="130" width="92.5" height="60" as="geometry" />
        </mxCell>
        <mxCell id="U0625dc-84SEc-x4zgt3-13" style="edgeStyle=orthogonalEdgeStyle;rounded=0;orthogonalLoop=1;jettySize=auto;html=1;exitX=0.5;exitY=0;exitDx=0;exitDy=0;entryX=0.5;entryY=1;entryDx=0;entryDy=0;fontSize=15;fontStyle=0" edge="1" parent="U0625dc-84SEc-x4zgt3-10" source="U0625dc-84SEc-x4zgt3-15" target="U0625dc-84SEc-x4zgt3-16">
          <mxGeometry relative="1" as="geometry">
            <Array as="points">
              <mxPoint x="194" y="110" />
              <mxPoint x="127" y="110" />
            </Array>
          </mxGeometry>
        </mxCell>
        <mxCell id="U0625dc-84SEc-x4zgt3-14" value="Y" style="edgeLabel;html=1;align=center;verticalAlign=middle;resizable=0;points=[];fontSize=15;fontStyle=0" vertex="1" connectable="0" parent="U0625dc-84SEc-x4zgt3-13">
          <mxGeometry x="-0.2684" relative="1" as="geometry">
            <mxPoint as="offset" />
          </mxGeometry>
        </mxCell>
        <mxCell id="U0625dc-84SEc-x4zgt3-15" value="调用云函数？" style="rhombus;whiteSpace=wrap;html=1;fontSize=15;fontStyle=0" vertex="1" parent="U0625dc-84SEc-x4zgt3-10">
          <mxGeometry x="146.41" y="120" width="94.37" height="80" as="geometry" />
        </mxCell>
        <mxCell id="U0625dc-84SEc-x4zgt3-16" value="私域？" style="rhombus;whiteSpace=wrap;html=1;fontSize=15;fontStyle=0" vertex="1" parent="U0625dc-84SEc-x4zgt3-10">
          <mxGeometry x="90" y="40" width="73.59" height="50" as="geometry" />
        </mxCell>
        <mxCell id="U0625dc-84SEc-x4zgt3-17" style="edgeStyle=orthogonalEdgeStyle;rounded=0;orthogonalLoop=1;jettySize=auto;html=1;exitX=1;exitY=0.5;exitDx=0;exitDy=0;entryX=0;entryY=0.5;entryDx=0;entryDy=0;fontSize=15;fontStyle=0" edge="1" parent="U0625dc-84SEc-x4zgt3-9" source="U0625dc-84SEc-x4zgt3-18" target="U0625dc-84SEc-x4zgt3-12">
          <mxGeometry relative="1" as="geometry" />
        </mxCell>
        <mxCell id="U0625dc-84SEc-x4zgt3-18" value="grpc/grpc-proxy" style="rounded=0;whiteSpace=wrap;html=1;fontSize=15;fontStyle=0" vertex="1" parent="U0625dc-84SEc-x4zgt3-9">
          <mxGeometry x="20" y="160" width="70" height="60" as="geometry" />
        </mxCell>
        <mxCell id="U0625dc-84SEc-x4zgt3-19" value="函数A" style="rounded=0;whiteSpace=wrap;html=1;fontSize=15;fontStyle=0" vertex="1" parent="U0625dc-84SEc-x4zgt3-9">
          <mxGeometry x="400" y="162.5" width="70" height="55" as="geometry" />
        </mxCell>
        <mxCell id="U0625dc-84SEc-x4zgt3-20" style="edgeStyle=orthogonalEdgeStyle;rounded=0;orthogonalLoop=1;jettySize=auto;html=1;exitX=1;exitY=0.5;exitDx=0;exitDy=0;entryX=0;entryY=0.5;entryDx=0;entryDy=0;fontSize=15;fontStyle=0" edge="1" parent="U0625dc-84SEc-x4zgt3-9" source="U0625dc-84SEc-x4zgt3-15" target="U0625dc-84SEc-x4zgt3-19">
          <mxGeometry relative="1" as="geometry" />
        </mxCell>
        <mxCell id="U0625dc-84SEc-x4zgt3-21" value="N" style="edgeLabel;html=1;align=center;verticalAlign=middle;resizable=0;points=[];fontSize=15;fontStyle=0" vertex="1" connectable="0" parent="U0625dc-84SEc-x4zgt3-20">
          <mxGeometry x="0.1284" relative="1" as="geometry">
            <mxPoint as="offset" />
          </mxGeometry>
        </mxCell>
        <mxCell id="U0625dc-84SEc-x4zgt3-59" value="直接模式" style="text;html=1;strokeColor=none;fillColor=none;align=center;verticalAlign=middle;whiteSpace=wrap;rounded=0;shadow=0;labelBorderColor=none;fontSize=15;fontColor=default;rotation=270;" vertex="1" parent="U0625dc-84SEc-x4zgt3-9">
          <mxGeometry x="380" y="80" width="80" height="30" as="geometry" />
        </mxCell>
        <mxCell id="U0625dc-84SEc-x4zgt3-22" value="服务B" style="swimlane;startSize=20;horizontal=1;containerType=tree;fontSize=15;fontStyle=0;fillColor=#b0e3e6;strokeColor=#0e8088;fontColor=default;labelBorderColor=none;shadow=0;" vertex="1" parent="IFCaMPKQP4HP2tQFBtrL-1">
          <mxGeometry x="-26" y="60" width="490" height="260" as="geometry" />
        </mxCell>
        <mxCell id="U0625dc-84SEc-x4zgt3-23" value="云函数网关插件" style="swimlane;fontSize=15;fontStyle=0;fillColor=#dae8fc;gradientColor=#7ea6e0;strokeColor=#6c8ebf;swimlaneFillColor=#CCE5FF;swimlaneLine=0;shadow=0;strokeWidth=1;" vertex="1" parent="U0625dc-84SEc-x4zgt3-22">
          <mxGeometry x="110" y="30" width="260" height="210" as="geometry" />
        </mxCell>
        <mxCell id="U0625dc-84SEc-x4zgt3-24" style="edgeStyle=orthogonalEdgeStyle;rounded=0;orthogonalLoop=1;jettySize=auto;html=1;exitX=1;exitY=0.5;exitDx=0;exitDy=0;entryX=0;entryY=0.5;entryDx=0;entryDy=0;fontSize=15;fontStyle=0" edge="1" parent="U0625dc-84SEc-x4zgt3-23" source="U0625dc-84SEc-x4zgt3-25" target="U0625dc-84SEc-x4zgt3-28">
          <mxGeometry relative="1" as="geometry" />
        </mxCell>
        <mxCell id="U0625dc-84SEc-x4zgt3-25" value="查询路由开关" style="rounded=0;whiteSpace=wrap;html=1;fontSize=15;fontStyle=0" vertex="1" parent="U0625dc-84SEc-x4zgt3-23">
          <mxGeometry x="20" y="130" width="92.5" height="60" as="geometry" />
        </mxCell>
        <mxCell id="U0625dc-84SEc-x4zgt3-26" style="edgeStyle=orthogonalEdgeStyle;rounded=0;orthogonalLoop=1;jettySize=auto;html=1;exitX=0.5;exitY=0;exitDx=0;exitDy=0;entryX=0.5;entryY=1;entryDx=0;entryDy=0;fontSize=15;fontStyle=0" edge="1" parent="U0625dc-84SEc-x4zgt3-23" source="U0625dc-84SEc-x4zgt3-28" target="U0625dc-84SEc-x4zgt3-29">
          <mxGeometry relative="1" as="geometry">
            <Array as="points">
              <mxPoint x="194" y="110" />
              <mxPoint x="127" y="110" />
            </Array>
          </mxGeometry>
        </mxCell>
        <mxCell id="U0625dc-84SEc-x4zgt3-27" value="Y" style="edgeLabel;html=1;align=center;verticalAlign=middle;resizable=0;points=[];fontSize=15;fontStyle=0" vertex="1" connectable="0" parent="U0625dc-84SEc-x4zgt3-26">
          <mxGeometry x="-0.2684" relative="1" as="geometry">
            <mxPoint as="offset" />
          </mxGeometry>
        </mxCell>
        <mxCell id="U0625dc-84SEc-x4zgt3-28" value="调用云函数？" style="rhombus;whiteSpace=wrap;html=1;fontSize=15;fontStyle=0" vertex="1" parent="U0625dc-84SEc-x4zgt3-23">
          <mxGeometry x="146.41" y="120" width="94.37" height="80" as="geometry" />
        </mxCell>
        <mxCell id="U0625dc-84SEc-x4zgt3-29" value="私域？" style="rhombus;whiteSpace=wrap;html=1;fontSize=15;fontStyle=0" vertex="1" parent="U0625dc-84SEc-x4zgt3-23">
          <mxGeometry x="90" y="40" width="73.59" height="50" as="geometry" />
        </mxCell>
        <mxCell id="U0625dc-84SEc-x4zgt3-30" style="edgeStyle=orthogonalEdgeStyle;rounded=0;orthogonalLoop=1;jettySize=auto;html=1;exitX=1;exitY=0.5;exitDx=0;exitDy=0;entryX=0;entryY=0.5;entryDx=0;entryDy=0;fontSize=15;fontStyle=0" edge="1" parent="U0625dc-84SEc-x4zgt3-22" source="U0625dc-84SEc-x4zgt3-31" target="U0625dc-84SEc-x4zgt3-25">
          <mxGeometry relative="1" as="geometry" />
        </mxCell>
        <mxCell id="U0625dc-84SEc-x4zgt3-31" value="grpc/grpc-proxy" style="rounded=0;whiteSpace=wrap;html=1;fontSize=15;fontStyle=0" vertex="1" parent="U0625dc-84SEc-x4zgt3-22">
          <mxGeometry x="20" y="160" width="70" height="60" as="geometry" />
        </mxCell>
        <mxCell id="U0625dc-84SEc-x4zgt3-32" value="函数B" style="rounded=0;whiteSpace=wrap;html=1;fontSize=15;fontStyle=0" vertex="1" parent="U0625dc-84SEc-x4zgt3-22">
          <mxGeometry x="400" y="162.5" width="70" height="55" as="geometry" />
        </mxCell>
        <mxCell id="U0625dc-84SEc-x4zgt3-33" style="edgeStyle=orthogonalEdgeStyle;rounded=0;orthogonalLoop=1;jettySize=auto;html=1;exitX=1;exitY=0.5;exitDx=0;exitDy=0;entryX=0;entryY=0.5;entryDx=0;entryDy=0;fontSize=15;fontStyle=0" edge="1" parent="U0625dc-84SEc-x4zgt3-22" source="U0625dc-84SEc-x4zgt3-28" target="U0625dc-84SEc-x4zgt3-32">
          <mxGeometry relative="1" as="geometry" />
        </mxCell>
        <mxCell id="U0625dc-84SEc-x4zgt3-34" value="N" style="edgeLabel;html=1;align=center;verticalAlign=middle;resizable=0;points=[];fontSize=15;fontStyle=0" vertex="1" connectable="0" parent="U0625dc-84SEc-x4zgt3-33">
          <mxGeometry x="0.1284" relative="1" as="geometry">
            <mxPoint as="offset" />
          </mxGeometry>
        </mxCell>
        <mxCell id="U0625dc-84SEc-x4zgt3-35" style="edgeStyle=orthogonalEdgeStyle;rounded=0;orthogonalLoop=1;jettySize=auto;html=1;exitX=0;exitY=0.5;exitDx=0;exitDy=0;fontSize=15;entryX=0.5;entryY=1;entryDx=0;entryDy=0;fontStyle=0" edge="1" parent="IFCaMPKQP4HP2tQFBtrL-1" source="U0625dc-84SEc-x4zgt3-29" target="U0625dc-84SEc-x4zgt3-8">
          <mxGeometry relative="1" as="geometry">
            <mxPoint x="151" y="-120" as="targetPoint" />
          </mxGeometry>
        </mxCell>
        <mxCell id="U0625dc-84SEc-x4zgt3-63" value="Y" style="edgeLabel;html=1;align=center;verticalAlign=middle;resizable=0;points=[];fontSize=15;fontColor=default;" vertex="1" connectable="0" parent="U0625dc-84SEc-x4zgt3-35">
          <mxGeometry x="0.0081" y="1" relative="1" as="geometry">
            <mxPoint as="offset" />
          </mxGeometry>
        </mxCell>
        <mxCell id="U0625dc-84SEc-x4zgt3-36" value="腾讯云云函数SCF" style="swimlane;fontSize=15;fontStyle=0;fillColor=#f8cecc;gradientColor=#ea6b66;strokeColor=#b85450;strokeWidth=2;swimlaneLine=0;" vertex="1" parent="IFCaMPKQP4HP2tQFBtrL-1">
          <mxGeometry x="381" y="-270" width="160" height="200" as="geometry" />
        </mxCell>
        <mxCell id="U0625dc-84SEc-x4zgt3-37" value="云函数B&#39;" style="rounded=0;whiteSpace=wrap;html=1;fontSize=15;fontStyle=0" vertex="1" parent="U0625dc-84SEc-x4zgt3-36">
          <mxGeometry x="30" y="40" width="100" height="30" as="geometry" />
        </mxCell>
        <mxCell id="U0625dc-84SEc-x4zgt3-38" value="云函数C&#39;" style="rounded=0;whiteSpace=wrap;html=1;fontSize=15;fontStyle=0" vertex="1" parent="U0625dc-84SEc-x4zgt3-36">
          <mxGeometry x="30" y="90" width="100" height="30" as="geometry" />
        </mxCell>
        <mxCell id="U0625dc-84SEc-x4zgt3-39" value="......" style="rounded=0;whiteSpace=wrap;html=1;fontSize=15;fontStyle=0" vertex="1" parent="U0625dc-84SEc-x4zgt3-36">
          <mxGeometry x="30" y="140" width="100" height="30" as="geometry" />
        </mxCell>
        <mxCell id="U0625dc-84SEc-x4zgt3-40" style="edgeStyle=orthogonalEdgeStyle;rounded=0;orthogonalLoop=1;jettySize=auto;html=1;exitX=0.5;exitY=1;exitDx=0;exitDy=0;fontSize=15;fontStyle=0" edge="1" parent="IFCaMPKQP4HP2tQFBtrL-1">
          <mxGeometry relative="1" as="geometry">
            <mxPoint x="461" y="-100" as="sourcePoint" />
            <mxPoint x="461" y="-100" as="targetPoint" />
          </mxGeometry>
        </mxCell>
        <mxCell id="U0625dc-84SEc-x4zgt3-41" style="edgeStyle=orthogonalEdgeStyle;rounded=0;orthogonalLoop=1;jettySize=auto;html=1;exitX=1;exitY=0.5;exitDx=0;exitDy=0;entryX=0;entryY=0.5;entryDx=0;entryDy=0;fontSize=15;fontStyle=0" edge="1" parent="IFCaMPKQP4HP2tQFBtrL-1" source="U0625dc-84SEc-x4zgt3-42" target="U0625dc-84SEc-x4zgt3-36">
          <mxGeometry relative="1" as="geometry" />
        </mxCell>
        <mxCell id="U0625dc-84SEc-x4zgt3-42" value="云函数平&lt;br&gt;台代理网&lt;br&gt;关" style="rounded=0;whiteSpace=wrap;html=1;fontSize=15;fontStyle=0" vertex="1" parent="IFCaMPKQP4HP2tQFBtrL-1">
          <mxGeometry x="247.59" y="-211.5" width="73.41" height="82.5" as="geometry" />
        </mxCell>
        <mxCell id="U0625dc-84SEc-x4zgt3-43" style="edgeStyle=orthogonalEdgeStyle;rounded=0;orthogonalLoop=1;jettySize=auto;html=1;exitX=1;exitY=0.5;exitDx=0;exitDy=0;entryX=0.5;entryY=1;entryDx=0;entryDy=0;fontSize=15;fontStyle=0" edge="1" parent="IFCaMPKQP4HP2tQFBtrL-1" source="U0625dc-84SEc-x4zgt3-29" target="U0625dc-84SEc-x4zgt3-42">
          <mxGeometry relative="1" as="geometry" />
        </mxCell>
        <mxCell id="U0625dc-84SEc-x4zgt3-62" value="N" style="edgeLabel;html=1;align=center;verticalAlign=middle;resizable=0;points=[];fontSize=15;fontColor=default;" vertex="1" connectable="0" parent="U0625dc-84SEc-x4zgt3-43">
          <mxGeometry x="0.0297" relative="1" as="geometry">
            <mxPoint as="offset" />
          </mxGeometry>
        </mxCell>
        <mxCell id="U0625dc-84SEc-x4zgt3-44" value="私域" style="text;html=1;strokeColor=none;fillColor=none;align=center;verticalAlign=middle;whiteSpace=wrap;rounded=0;fontSize=15;opacity=40;fontStyle=0" vertex="1" parent="IFCaMPKQP4HP2tQFBtrL-1">
          <mxGeometry x="-149" y="-301" width="60" height="30" as="geometry" />
        </mxCell>
        <mxCell id="U0625dc-84SEc-x4zgt3-45" value="公域" style="text;html=1;strokeColor=none;fillColor=none;align=center;verticalAlign=middle;whiteSpace=wrap;rounded=0;fontSize=15;opacity=40;fontStyle=0" vertex="1" parent="IFCaMPKQP4HP2tQFBtrL-1">
          <mxGeometry x="531" y="-301" width="60" height="30" as="geometry" />
        </mxCell>
        <mxCell id="U0625dc-84SEc-x4zgt3-47" value="" style="shape=doubleArrow;direction=south;whiteSpace=wrap;html=1;fontSize=15;fillColor=default;fontStyle=0" vertex="1" parent="IFCaMPKQP4HP2tQFBtrL-1">
          <mxGeometry x="130.63" y="280" width="39.25" height="100" as="geometry" />
        </mxCell>
        <mxCell id="U0625dc-84SEc-x4zgt3-48" value="" style="rounded=0;whiteSpace=wrap;html=1;fontSize=15;fontStyle=0;fillColor=#fad7ac;strokeColor=#b46504;" vertex="1" parent="IFCaMPKQP4HP2tQFBtrL-1">
          <mxGeometry x="-585" y="-301" width="330" height="260" as="geometry" />
        </mxCell>
        <mxCell id="U0625dc-84SEc-x4zgt3-49" value="Openfaas" style="swimlane;fontSize=15;fontStyle=0;fillColor=#dae8fc;gradientColor=#7ea6e0;strokeColor=#6c8ebf;shadow=0;strokeWidth=2;swimlaneLine=0;" vertex="1" parent="IFCaMPKQP4HP2tQFBtrL-1">
          <mxGeometry x="-555" y="-271" width="160" height="200" as="geometry" />
        </mxCell>
        <mxCell id="U0625dc-84SEc-x4zgt3-50" value="云函数B&#39;" style="rounded=0;whiteSpace=wrap;html=1;fontSize=15;fontStyle=0" vertex="1" parent="U0625dc-84SEc-x4zgt3-49">
          <mxGeometry x="30" y="40" width="100" height="30" as="geometry" />
        </mxCell>
        <mxCell id="U0625dc-84SEc-x4zgt3-51" value="云函数C&#39;" style="rounded=0;whiteSpace=wrap;html=1;fontSize=15;fontStyle=0" vertex="1" parent="U0625dc-84SEc-x4zgt3-49">
          <mxGeometry x="30" y="90" width="100" height="30" as="geometry" />
        </mxCell>
        <mxCell id="U0625dc-84SEc-x4zgt3-52" value="......" style="rounded=0;whiteSpace=wrap;html=1;fontSize=15;fontStyle=0" vertex="1" parent="U0625dc-84SEc-x4zgt3-49">
          <mxGeometry x="30" y="140" width="100" height="30" as="geometry" />
        </mxCell>
        <mxCell id="U0625dc-84SEc-x4zgt3-53" style="edgeStyle=orthogonalEdgeStyle;rounded=0;orthogonalLoop=1;jettySize=auto;html=1;exitX=0;exitY=0.5;exitDx=0;exitDy=0;entryX=1;entryY=0.5;entryDx=0;entryDy=0;fontSize=15;fontStyle=0;fillColor=#dae8fc;gradientColor=#7ea6e0;strokeColor=#6c8ebf;" edge="1" parent="IFCaMPKQP4HP2tQFBtrL-1" source="U0625dc-84SEc-x4zgt3-54" target="U0625dc-84SEc-x4zgt3-49">
          <mxGeometry relative="1" as="geometry" />
        </mxCell>
        <mxCell id="U0625dc-84SEc-x4zgt3-54" value="云函数平&lt;br&gt;台代理网&lt;br&gt;关" style="rounded=0;whiteSpace=wrap;html=1;fontSize=15;fontStyle=0;fillColor=#dae8fc;gradientColor=#7ea6e0;strokeColor=#6c8ebf;" vertex="1" parent="IFCaMPKQP4HP2tQFBtrL-1">
          <mxGeometry x="-345" y="-218" width="73" height="94" as="geometry" />
        </mxCell>
        <mxCell id="U0625dc-84SEc-x4zgt3-56" style="edgeStyle=orthogonalEdgeStyle;rounded=0;orthogonalLoop=1;jettySize=auto;html=1;exitX=0.5;exitY=0;exitDx=0;exitDy=0;entryX=1;entryY=0.5;entryDx=0;entryDy=0;fontSize=15;fontColor=default;dashed=1;" edge="1" parent="IFCaMPKQP4HP2tQFBtrL-1" source="U0625dc-84SEc-x4zgt3-19" target="U0625dc-84SEc-x4zgt3-54">
          <mxGeometry relative="1" as="geometry" />
        </mxCell>
        <mxCell id="U0625dc-84SEc-x4zgt3-58" style="edgeStyle=orthogonalEdgeStyle;rounded=0;orthogonalLoop=1;jettySize=auto;html=1;exitX=1;exitY=0.5;exitDx=0;exitDy=0;entryX=0;entryY=0.5;entryDx=0;entryDy=0;fontSize=15;fontColor=default;" edge="1" parent="IFCaMPKQP4HP2tQFBtrL-1" source="U0625dc-84SEc-x4zgt3-19" target="U0625dc-84SEc-x4zgt3-31">
          <mxGeometry relative="1" as="geometry" />
        </mxCell>
        <mxCell id="U0625dc-84SEc-x4zgt3-61" value="插件模式" style="text;html=1;strokeColor=none;fillColor=none;align=center;verticalAlign=middle;whiteSpace=wrap;rounded=0;shadow=0;labelBorderColor=none;fontSize=15;fontColor=default;" vertex="1" parent="IFCaMPKQP4HP2tQFBtrL-1">
          <mxGeometry x="-179" y="220" width="70" height="30" as="geometry" />
        </mxCell>
      </root>
    </mxGraphModel>
  </diagram>
  <diagram id="JWkSaCIBXw_BbC1OM_UT" name="Page-1">
    <mxGraphModel dx="2948" dy="2355" grid="1" gridSize="10" guides="1" tooltips="1" connect="1" arrows="1" fold="1" page="1" pageScale="1" pageWidth="827" pageHeight="1169" background="none" math="0" shadow="1">
      <root>
        <mxCell id="0" />
        <mxCell id="1" parent="0" />
        <mxCell id="8ChkczAc9QmY6yMEM5Gc-102" value="" style="rounded=0;whiteSpace=wrap;html=1;fontSize=15;fillColor=#ffcccc;strokeColor=#36393d;fontStyle=0;" vertex="1" parent="1">
          <mxGeometry x="-190" y="-301" width="330" height="260" as="geometry" />
        </mxCell>
        <mxCell id="8ChkczAc9QmY6yMEM5Gc-101" value="" style="rounded=0;whiteSpace=wrap;html=1;fontSize=15;fillColor=#b1ddf0;strokeColor=#10739e;fontStyle=0;shadow=0;" vertex="1" parent="1">
          <mxGeometry x="180" y="-301" width="350" height="260" as="geometry" />
        </mxCell>
        <mxCell id="iRXNjvUi3MBMvU93vo_h-6" value="&lt;table border=&quot;1&quot; width=&quot;100%&quot; cellpadding=&quot;4&quot; style=&quot;width: 100%; height: 100%; border-collapse: collapse; font-size: 15px;&quot;&gt;&lt;tbody style=&quot;font-size: 15px;&quot;&gt;&lt;tr style=&quot;background-color: rgb(167, 201, 66); color: rgb(255, 255, 255); border: 1px solid rgb(152, 191, 33); font-size: 15px;&quot;&gt;&lt;th align=&quot;left&quot; style=&quot;font-size: 15px;&quot;&gt;tenant_id&lt;/th&gt;&lt;th align=&quot;left&quot; style=&quot;font-size: 15px;&quot;&gt;service&lt;/th&gt;&lt;th align=&quot;left&quot; style=&quot;font-size: 15px;&quot;&gt;func&lt;/th&gt;&lt;td style=&quot;font-size: 15px;&quot;&gt;&lt;span style=&quot;font-size: 15px;&quot;&gt;switch&lt;/span&gt;&lt;/td&gt;&lt;/tr&gt;&lt;tr style=&quot;border: 1px solid rgb(152, 191, 33); font-size: 15px;&quot;&gt;&lt;td style=&quot;font-size: 15px;&quot;&gt;1&lt;/td&gt;&lt;td style=&quot;font-size: 15px;&quot;&gt;ApiServer&lt;/td&gt;&lt;td style=&quot;font-size: 15px;&quot;&gt;GetUploadSign&lt;/td&gt;&lt;td style=&quot;font-size: 15px;&quot;&gt;on&lt;/td&gt;&lt;/tr&gt;&lt;tr style=&quot;background-color: rgb(234, 242, 211); border: 1px solid rgb(152, 191, 33); font-size: 15px;&quot;&gt;&lt;td style=&quot;font-size: 15px;&quot;&gt;1&lt;/td&gt;&lt;td style=&quot;font-size: 15px;&quot;&gt;ApiServer&lt;/td&gt;&lt;td style=&quot;font-size: 15px;&quot;&gt;CopyObjFromUrl&lt;/td&gt;&lt;td style=&quot;font-size: 15px;&quot;&gt;on&lt;/td&gt;&lt;/tr&gt;&lt;tr style=&quot;border: 1px solid rgb(152, 191, 33); font-size: 15px;&quot;&gt;&lt;td style=&quot;font-size: 15px;&quot;&gt;2&lt;/td&gt;&lt;td style=&quot;font-size: 15px;&quot;&gt;CMCServer&lt;/td&gt;&lt;td style=&quot;font-size: 15px;&quot;&gt;GetUserList&lt;/td&gt;&lt;td style=&quot;font-size: 15px;&quot;&gt;on&lt;/td&gt;&lt;/tr&gt;&lt;/tbody&gt;&lt;/table&gt;" style="text;html=1;strokeColor=#c0c0c0;fillColor=#ffffff;overflow=fill;rounded=0;fontSize=15;fontStyle=0" parent="1" vertex="1">
          <mxGeometry x="-105.75" y="380" width="415.75" height="160" as="geometry" />
        </mxCell>
        <mxCell id="8ChkczAc9QmY6yMEM5Gc-16" value="Openfaas" style="swimlane;fontSize=15;fontStyle=0;fillColor=#f8cecc;gradientColor=#ea6b66;strokeColor=#b85450;shadow=0;strokeWidth=2;swimlaneLine=0;" vertex="1" parent="1">
          <mxGeometry x="-160" y="-271" width="160" height="200" as="geometry" />
        </mxCell>
        <mxCell id="8ChkczAc9QmY6yMEM5Gc-17" value="云函数B&#39;" style="rounded=0;whiteSpace=wrap;html=1;fontSize=15;fontStyle=0" vertex="1" parent="8ChkczAc9QmY6yMEM5Gc-16">
          <mxGeometry x="30" y="40" width="100" height="30" as="geometry" />
        </mxCell>
        <mxCell id="8ChkczAc9QmY6yMEM5Gc-18" value="云函数C&#39;" style="rounded=0;whiteSpace=wrap;html=1;fontSize=15;fontStyle=0" vertex="1" parent="8ChkczAc9QmY6yMEM5Gc-16">
          <mxGeometry x="30" y="90" width="100" height="30" as="geometry" />
        </mxCell>
        <mxCell id="8ChkczAc9QmY6yMEM5Gc-19" value="......" style="rounded=0;whiteSpace=wrap;html=1;fontSize=15;fontStyle=0" vertex="1" parent="8ChkczAc9QmY6yMEM5Gc-16">
          <mxGeometry x="30" y="140" width="100" height="30" as="geometry" />
        </mxCell>
        <mxCell id="8ChkczAc9QmY6yMEM5Gc-24" style="edgeStyle=orthogonalEdgeStyle;rounded=0;orthogonalLoop=1;jettySize=auto;html=1;exitX=0;exitY=0.5;exitDx=0;exitDy=0;entryX=1;entryY=0.5;entryDx=0;entryDy=0;fontSize=15;fontStyle=0" edge="1" parent="1" source="8ChkczAc9QmY6yMEM5Gc-22" target="8ChkczAc9QmY6yMEM5Gc-16">
          <mxGeometry relative="1" as="geometry" />
        </mxCell>
        <mxCell id="8ChkczAc9QmY6yMEM5Gc-22" value="云函数平&lt;br&gt;台代理网&lt;br&gt;关" style="rounded=0;whiteSpace=wrap;html=1;fontSize=15;fontStyle=0" vertex="1" parent="1">
          <mxGeometry x="50" y="-218" width="73" height="94" as="geometry" />
        </mxCell>
        <mxCell id="8ChkczAc9QmY6yMEM5Gc-57" value="服务A" style="swimlane;startSize=20;horizontal=1;containerType=tree;fontSize=15;swimlaneFillColor=none;fontStyle=0;strokeColor=#0e8088;fillColor=#b0e3e6;" vertex="1" parent="1">
          <mxGeometry x="-670" y="60" width="490" height="260" as="geometry" />
        </mxCell>
        <mxCell id="8ChkczAc9QmY6yMEM5Gc-60" value="NGES网关" style="swimlane;fontSize=15;fontStyle=0;fillColor=#dae8fc;gradientColor=#7ea6e0;strokeColor=#6c8ebf;swimlaneFillColor=#CCE5FF;" vertex="1" parent="8ChkczAc9QmY6yMEM5Gc-57">
          <mxGeometry x="110" y="30" width="260" height="210" as="geometry" />
        </mxCell>
        <mxCell id="8ChkczAc9QmY6yMEM5Gc-71" style="edgeStyle=orthogonalEdgeStyle;rounded=0;orthogonalLoop=1;jettySize=auto;html=1;exitX=1;exitY=0.5;exitDx=0;exitDy=0;entryX=0;entryY=0.5;entryDx=0;entryDy=0;fontSize=15;fontStyle=0" edge="1" parent="8ChkczAc9QmY6yMEM5Gc-60" source="8ChkczAc9QmY6yMEM5Gc-62" target="8ChkczAc9QmY6yMEM5Gc-65">
          <mxGeometry relative="1" as="geometry" />
        </mxCell>
        <mxCell id="8ChkczAc9QmY6yMEM5Gc-62" value="查询路由开关" style="rounded=0;whiteSpace=wrap;html=1;fontSize=15;fontStyle=0" vertex="1" parent="8ChkczAc9QmY6yMEM5Gc-60">
          <mxGeometry x="20" y="130" width="92.5" height="60" as="geometry" />
        </mxCell>
        <mxCell id="8ChkczAc9QmY6yMEM5Gc-74" style="edgeStyle=orthogonalEdgeStyle;rounded=0;orthogonalLoop=1;jettySize=auto;html=1;exitX=0.5;exitY=0;exitDx=0;exitDy=0;entryX=0.5;entryY=1;entryDx=0;entryDy=0;fontSize=15;fontStyle=0" edge="1" parent="8ChkczAc9QmY6yMEM5Gc-60" source="8ChkczAc9QmY6yMEM5Gc-65" target="8ChkczAc9QmY6yMEM5Gc-73">
          <mxGeometry relative="1" as="geometry">
            <Array as="points">
              <mxPoint x="194" y="110" />
              <mxPoint x="127" y="110" />
            </Array>
          </mxGeometry>
        </mxCell>
        <mxCell id="8ChkczAc9QmY6yMEM5Gc-76" value="Y" style="edgeLabel;html=1;align=center;verticalAlign=middle;resizable=0;points=[];fontSize=15;fontStyle=0" vertex="1" connectable="0" parent="8ChkczAc9QmY6yMEM5Gc-74">
          <mxGeometry x="-0.2684" relative="1" as="geometry">
            <mxPoint as="offset" />
          </mxGeometry>
        </mxCell>
        <mxCell id="8ChkczAc9QmY6yMEM5Gc-65" value="调用云函数？" style="rhombus;whiteSpace=wrap;html=1;fontSize=15;fontStyle=0" vertex="1" parent="8ChkczAc9QmY6yMEM5Gc-60">
          <mxGeometry x="146.41" y="120" width="94.37" height="80" as="geometry" />
        </mxCell>
        <mxCell id="8ChkczAc9QmY6yMEM5Gc-73" value="私域？" style="rhombus;whiteSpace=wrap;html=1;fontSize=15;fontStyle=0" vertex="1" parent="8ChkczAc9QmY6yMEM5Gc-60">
          <mxGeometry x="90" y="40" width="73.59" height="50" as="geometry" />
        </mxCell>
        <mxCell id="8ChkczAc9QmY6yMEM5Gc-58" style="edgeStyle=orthogonalEdgeStyle;rounded=0;orthogonalLoop=1;jettySize=auto;html=1;exitX=1;exitY=0.5;exitDx=0;exitDy=0;entryX=0;entryY=0.5;entryDx=0;entryDy=0;fontSize=15;fontStyle=0" edge="1" parent="8ChkczAc9QmY6yMEM5Gc-57" source="8ChkczAc9QmY6yMEM5Gc-59" target="8ChkczAc9QmY6yMEM5Gc-62">
          <mxGeometry relative="1" as="geometry" />
        </mxCell>
        <mxCell id="8ChkczAc9QmY6yMEM5Gc-59" value="grpc/grpc-proxy" style="rounded=0;whiteSpace=wrap;html=1;fontSize=15;fontStyle=0" vertex="1" parent="8ChkczAc9QmY6yMEM5Gc-57">
          <mxGeometry x="20" y="160" width="70" height="60" as="geometry" />
        </mxCell>
        <mxCell id="8ChkczAc9QmY6yMEM5Gc-67" value="函数A" style="rounded=0;whiteSpace=wrap;html=1;fontSize=15;fontStyle=0" vertex="1" parent="8ChkczAc9QmY6yMEM5Gc-57">
          <mxGeometry x="400" y="162.5" width="70" height="55" as="geometry" />
        </mxCell>
        <mxCell id="8ChkczAc9QmY6yMEM5Gc-75" style="edgeStyle=orthogonalEdgeStyle;rounded=0;orthogonalLoop=1;jettySize=auto;html=1;exitX=1;exitY=0.5;exitDx=0;exitDy=0;entryX=0;entryY=0.5;entryDx=0;entryDy=0;fontSize=15;fontStyle=0" edge="1" parent="8ChkczAc9QmY6yMEM5Gc-57" source="8ChkczAc9QmY6yMEM5Gc-65" target="8ChkczAc9QmY6yMEM5Gc-67">
          <mxGeometry relative="1" as="geometry" />
        </mxCell>
        <mxCell id="8ChkczAc9QmY6yMEM5Gc-77" value="N" style="edgeLabel;html=1;align=center;verticalAlign=middle;resizable=0;points=[];fontSize=15;fontStyle=0" vertex="1" connectable="0" parent="8ChkczAc9QmY6yMEM5Gc-75">
          <mxGeometry x="0.1284" relative="1" as="geometry">
            <mxPoint as="offset" />
          </mxGeometry>
        </mxCell>
        <mxCell id="8ChkczAc9QmY6yMEM5Gc-78" value="服务B" style="swimlane;startSize=20;horizontal=1;containerType=tree;fontSize=15;fontStyle=0;fillColor=#b0e3e6;strokeColor=#0e8088;fontColor=default;labelBorderColor=none;shadow=0;" vertex="1" parent="1">
          <mxGeometry x="-77" y="60" width="490" height="260" as="geometry" />
        </mxCell>
        <mxCell id="8ChkczAc9QmY6yMEM5Gc-81" value="NGES网关" style="swimlane;fontSize=15;fontStyle=0;fillColor=#dae8fc;gradientColor=#7ea6e0;strokeColor=#6c8ebf;swimlaneFillColor=#CCE5FF;swimlaneLine=0;shadow=0;strokeWidth=1;" vertex="1" parent="8ChkczAc9QmY6yMEM5Gc-78">
          <mxGeometry x="110" y="30" width="260" height="210" as="geometry" />
        </mxCell>
        <mxCell id="8ChkczAc9QmY6yMEM5Gc-82" style="edgeStyle=orthogonalEdgeStyle;rounded=0;orthogonalLoop=1;jettySize=auto;html=1;exitX=1;exitY=0.5;exitDx=0;exitDy=0;entryX=0;entryY=0.5;entryDx=0;entryDy=0;fontSize=15;fontStyle=0" edge="1" parent="8ChkczAc9QmY6yMEM5Gc-81" source="8ChkczAc9QmY6yMEM5Gc-83" target="8ChkczAc9QmY6yMEM5Gc-86">
          <mxGeometry relative="1" as="geometry" />
        </mxCell>
        <mxCell id="8ChkczAc9QmY6yMEM5Gc-83" value="查询路由开关" style="rounded=0;whiteSpace=wrap;html=1;fontSize=15;fontStyle=0" vertex="1" parent="8ChkczAc9QmY6yMEM5Gc-81">
          <mxGeometry x="20" y="130" width="92.5" height="60" as="geometry" />
        </mxCell>
        <mxCell id="8ChkczAc9QmY6yMEM5Gc-84" style="edgeStyle=orthogonalEdgeStyle;rounded=0;orthogonalLoop=1;jettySize=auto;html=1;exitX=0.5;exitY=0;exitDx=0;exitDy=0;entryX=0.5;entryY=1;entryDx=0;entryDy=0;fontSize=15;fontStyle=0" edge="1" parent="8ChkczAc9QmY6yMEM5Gc-81" source="8ChkczAc9QmY6yMEM5Gc-86" target="8ChkczAc9QmY6yMEM5Gc-87">
          <mxGeometry relative="1" as="geometry">
            <Array as="points">
              <mxPoint x="194" y="110" />
              <mxPoint x="127" y="110" />
            </Array>
          </mxGeometry>
        </mxCell>
        <mxCell id="8ChkczAc9QmY6yMEM5Gc-85" value="Y" style="edgeLabel;html=1;align=center;verticalAlign=middle;resizable=0;points=[];fontSize=15;fontStyle=0" vertex="1" connectable="0" parent="8ChkczAc9QmY6yMEM5Gc-84">
          <mxGeometry x="-0.2684" relative="1" as="geometry">
            <mxPoint as="offset" />
          </mxGeometry>
        </mxCell>
        <mxCell id="8ChkczAc9QmY6yMEM5Gc-86" value="调用云函数？" style="rhombus;whiteSpace=wrap;html=1;fontSize=15;fontStyle=0" vertex="1" parent="8ChkczAc9QmY6yMEM5Gc-81">
          <mxGeometry x="146.41" y="120" width="94.37" height="80" as="geometry" />
        </mxCell>
        <mxCell id="8ChkczAc9QmY6yMEM5Gc-87" value="私域？" style="rhombus;whiteSpace=wrap;html=1;fontSize=15;fontStyle=0" vertex="1" parent="8ChkczAc9QmY6yMEM5Gc-81">
          <mxGeometry x="90" y="40" width="73.59" height="50" as="geometry" />
        </mxCell>
        <mxCell id="8ChkczAc9QmY6yMEM5Gc-79" style="edgeStyle=orthogonalEdgeStyle;rounded=0;orthogonalLoop=1;jettySize=auto;html=1;exitX=1;exitY=0.5;exitDx=0;exitDy=0;entryX=0;entryY=0.5;entryDx=0;entryDy=0;fontSize=15;fontStyle=0" edge="1" parent="8ChkczAc9QmY6yMEM5Gc-78" source="8ChkczAc9QmY6yMEM5Gc-80" target="8ChkczAc9QmY6yMEM5Gc-83">
          <mxGeometry relative="1" as="geometry" />
        </mxCell>
        <mxCell id="8ChkczAc9QmY6yMEM5Gc-80" value="grpc/grpc-proxy" style="rounded=0;whiteSpace=wrap;html=1;fontSize=15;fontStyle=0" vertex="1" parent="8ChkczAc9QmY6yMEM5Gc-78">
          <mxGeometry x="20" y="160" width="70" height="60" as="geometry" />
        </mxCell>
        <mxCell id="8ChkczAc9QmY6yMEM5Gc-88" value="函数B" style="rounded=0;whiteSpace=wrap;html=1;fontSize=15;fontStyle=0" vertex="1" parent="8ChkczAc9QmY6yMEM5Gc-78">
          <mxGeometry x="400" y="162.5" width="70" height="55" as="geometry" />
        </mxCell>
        <mxCell id="8ChkczAc9QmY6yMEM5Gc-89" style="edgeStyle=orthogonalEdgeStyle;rounded=0;orthogonalLoop=1;jettySize=auto;html=1;exitX=1;exitY=0.5;exitDx=0;exitDy=0;entryX=0;entryY=0.5;entryDx=0;entryDy=0;fontSize=15;fontStyle=0" edge="1" parent="8ChkczAc9QmY6yMEM5Gc-78" source="8ChkczAc9QmY6yMEM5Gc-86" target="8ChkczAc9QmY6yMEM5Gc-88">
          <mxGeometry relative="1" as="geometry" />
        </mxCell>
        <mxCell id="8ChkczAc9QmY6yMEM5Gc-90" value="N" style="edgeLabel;html=1;align=center;verticalAlign=middle;resizable=0;points=[];fontSize=15;fontStyle=0" vertex="1" connectable="0" parent="8ChkczAc9QmY6yMEM5Gc-89">
          <mxGeometry x="0.1284" relative="1" as="geometry">
            <mxPoint as="offset" />
          </mxGeometry>
        </mxCell>
        <mxCell id="8ChkczAc9QmY6yMEM5Gc-91" style="edgeStyle=orthogonalEdgeStyle;rounded=0;orthogonalLoop=1;jettySize=auto;html=1;exitX=0;exitY=0.5;exitDx=0;exitDy=0;fontSize=15;entryX=0.5;entryY=1;entryDx=0;entryDy=0;fontStyle=0" edge="1" parent="1" source="8ChkczAc9QmY6yMEM5Gc-87" target="8ChkczAc9QmY6yMEM5Gc-22">
          <mxGeometry relative="1" as="geometry">
            <mxPoint x="100" y="-120" as="targetPoint" />
          </mxGeometry>
        </mxCell>
        <mxCell id="8ChkczAc9QmY6yMEM5Gc-92" value="腾讯云云函数SCF" style="swimlane;fontSize=15;fontStyle=0;fillColor=#f8cecc;gradientColor=#ea6b66;strokeColor=#b85450;strokeWidth=2;swimlaneLine=0;" vertex="1" parent="1">
          <mxGeometry x="330" y="-270" width="160" height="200" as="geometry" />
        </mxCell>
        <mxCell id="8ChkczAc9QmY6yMEM5Gc-93" value="云函数B&#39;" style="rounded=0;whiteSpace=wrap;html=1;fontSize=15;fontStyle=0" vertex="1" parent="8ChkczAc9QmY6yMEM5Gc-92">
          <mxGeometry x="30" y="40" width="100" height="30" as="geometry" />
        </mxCell>
        <mxCell id="8ChkczAc9QmY6yMEM5Gc-94" value="云函数C&#39;" style="rounded=0;whiteSpace=wrap;html=1;fontSize=15;fontStyle=0" vertex="1" parent="8ChkczAc9QmY6yMEM5Gc-92">
          <mxGeometry x="30" y="90" width="100" height="30" as="geometry" />
        </mxCell>
        <mxCell id="8ChkczAc9QmY6yMEM5Gc-95" value="......" style="rounded=0;whiteSpace=wrap;html=1;fontSize=15;fontStyle=0" vertex="1" parent="8ChkczAc9QmY6yMEM5Gc-92">
          <mxGeometry x="30" y="140" width="100" height="30" as="geometry" />
        </mxCell>
        <mxCell id="8ChkczAc9QmY6yMEM5Gc-96" style="edgeStyle=orthogonalEdgeStyle;rounded=0;orthogonalLoop=1;jettySize=auto;html=1;exitX=0.5;exitY=1;exitDx=0;exitDy=0;fontSize=15;fontStyle=0" edge="1" parent="1">
          <mxGeometry relative="1" as="geometry">
            <mxPoint x="410" y="-100" as="sourcePoint" />
            <mxPoint x="410" y="-100" as="targetPoint" />
          </mxGeometry>
        </mxCell>
        <mxCell id="8ChkczAc9QmY6yMEM5Gc-100" style="edgeStyle=orthogonalEdgeStyle;rounded=0;orthogonalLoop=1;jettySize=auto;html=1;exitX=1;exitY=0.5;exitDx=0;exitDy=0;entryX=0;entryY=0.5;entryDx=0;entryDy=0;fontSize=15;fontStyle=0" edge="1" parent="1" source="8ChkczAc9QmY6yMEM5Gc-98" target="8ChkczAc9QmY6yMEM5Gc-92">
          <mxGeometry relative="1" as="geometry" />
        </mxCell>
        <mxCell id="8ChkczAc9QmY6yMEM5Gc-98" value="云函数平&lt;br&gt;台代理网&lt;br&gt;关" style="rounded=0;whiteSpace=wrap;html=1;fontSize=15;fontStyle=0" vertex="1" parent="1">
          <mxGeometry x="196.59" y="-211.5" width="73.41" height="82.5" as="geometry" />
        </mxCell>
        <mxCell id="8ChkczAc9QmY6yMEM5Gc-99" style="edgeStyle=orthogonalEdgeStyle;rounded=0;orthogonalLoop=1;jettySize=auto;html=1;exitX=1;exitY=0.5;exitDx=0;exitDy=0;entryX=0.5;entryY=1;entryDx=0;entryDy=0;fontSize=15;fontStyle=0" edge="1" parent="1" source="8ChkczAc9QmY6yMEM5Gc-87" target="8ChkczAc9QmY6yMEM5Gc-98">
          <mxGeometry relative="1" as="geometry" />
        </mxCell>
        <mxCell id="8ChkczAc9QmY6yMEM5Gc-103" value="私域" style="text;html=1;strokeColor=none;fillColor=none;align=center;verticalAlign=middle;whiteSpace=wrap;rounded=0;fontSize=15;opacity=40;fontStyle=0" vertex="1" parent="1">
          <mxGeometry x="-200" y="-301" width="60" height="30" as="geometry" />
        </mxCell>
        <mxCell id="8ChkczAc9QmY6yMEM5Gc-104" value="公域" style="text;html=1;strokeColor=none;fillColor=none;align=center;verticalAlign=middle;whiteSpace=wrap;rounded=0;fontSize=15;opacity=40;fontStyle=0" vertex="1" parent="1">
          <mxGeometry x="480" y="-301" width="60" height="30" as="geometry" />
        </mxCell>
        <mxCell id="8ChkczAc9QmY6yMEM5Gc-106" style="edgeStyle=orthogonalEdgeStyle;rounded=0;orthogonalLoop=1;jettySize=auto;html=1;exitX=1;exitY=0.5;exitDx=0;exitDy=0;entryX=0;entryY=0.5;entryDx=0;entryDy=0;fontSize=15;fontStyle=0" edge="1" parent="1" source="8ChkczAc9QmY6yMEM5Gc-67" target="8ChkczAc9QmY6yMEM5Gc-80">
          <mxGeometry relative="1" as="geometry" />
        </mxCell>
        <mxCell id="8ChkczAc9QmY6yMEM5Gc-109" value="" style="shape=doubleArrow;direction=south;whiteSpace=wrap;html=1;fontSize=15;fillColor=default;fontStyle=0" vertex="1" parent="1">
          <mxGeometry x="79.63" y="280" width="39.25" height="100" as="geometry" />
        </mxCell>
      </root>
    </mxGraphModel>
  </diagram>
  <diagram id="FJGrIBFXIrZjQzSwKuci" name="Page-2">
    <mxGraphModel dx="2524" dy="2118" grid="1" gridSize="10" guides="1" tooltips="1" connect="1" arrows="1" fold="1" page="1" pageScale="1" pageWidth="827" pageHeight="1169" math="0" shadow="0">
      <root>
        <mxCell id="URROGnMtyPQ05QQZQxgK-0" />
        <mxCell id="URROGnMtyPQ05QQZQxgK-1" parent="URROGnMtyPQ05QQZQxgK-0" />
        <mxCell id="40BiTgnXR5nXwLaclg4I-0" value="腾讯云云函数SCF" style="swimlane;fillColor=#d5e8d4;strokeColor=#82b366;" parent="URROGnMtyPQ05QQZQxgK-1" vertex="1">
          <mxGeometry x="100" y="210" width="200" height="200" as="geometry" />
        </mxCell>
        <mxCell id="40BiTgnXR5nXwLaclg4I-1" value="云函数1" style="rounded=0;whiteSpace=wrap;html=1;fillColor=#d5e8d4;strokeColor=#82b366;" parent="40BiTgnXR5nXwLaclg4I-0" vertex="1">
          <mxGeometry x="10" y="60" width="80" height="40" as="geometry" />
        </mxCell>
        <mxCell id="40BiTgnXR5nXwLaclg4I-2" value="云函数2" style="rounded=0;whiteSpace=wrap;html=1;fillColor=#d5e8d4;strokeColor=#82b366;" parent="40BiTgnXR5nXwLaclg4I-0" vertex="1">
          <mxGeometry x="110" y="60" width="80" height="40" as="geometry" />
        </mxCell>
        <mxCell id="40BiTgnXR5nXwLaclg4I-3" value="云函数3" style="rounded=0;whiteSpace=wrap;html=1;fillColor=#d5e8d4;strokeColor=#82b366;" parent="40BiTgnXR5nXwLaclg4I-0" vertex="1">
          <mxGeometry x="10" y="120" width="80" height="40" as="geometry" />
        </mxCell>
        <mxCell id="40BiTgnXR5nXwLaclg4I-4" value="..." style="rounded=0;whiteSpace=wrap;html=1;fillColor=#d5e8d4;strokeColor=#82b366;" parent="40BiTgnXR5nXwLaclg4I-0" vertex="1">
          <mxGeometry x="110" y="120" width="80" height="40" as="geometry" />
        </mxCell>
        <mxCell id="40BiTgnXR5nXwLaclg4I-5" value="OpenFaas" style="swimlane;fillColor=#d5e8d4;strokeColor=#82b366;" parent="URROGnMtyPQ05QQZQxgK-1" vertex="1">
          <mxGeometry x="340" y="210" width="200" height="200" as="geometry" />
        </mxCell>
        <mxCell id="40BiTgnXR5nXwLaclg4I-6" value="云函数1" style="rounded=0;whiteSpace=wrap;html=1;fillColor=#d5e8d4;strokeColor=#82b366;" parent="40BiTgnXR5nXwLaclg4I-5" vertex="1">
          <mxGeometry x="10" y="60" width="80" height="40" as="geometry" />
        </mxCell>
        <mxCell id="40BiTgnXR5nXwLaclg4I-7" value="云函数2" style="rounded=0;whiteSpace=wrap;html=1;fillColor=#d5e8d4;strokeColor=#82b366;" parent="40BiTgnXR5nXwLaclg4I-5" vertex="1">
          <mxGeometry x="110" y="60" width="80" height="40" as="geometry" />
        </mxCell>
        <mxCell id="40BiTgnXR5nXwLaclg4I-8" value="云函数3" style="rounded=0;whiteSpace=wrap;html=1;fillColor=#d5e8d4;strokeColor=#82b366;" parent="40BiTgnXR5nXwLaclg4I-5" vertex="1">
          <mxGeometry x="10" y="120" width="80" height="40" as="geometry" />
        </mxCell>
        <mxCell id="40BiTgnXR5nXwLaclg4I-9" value="..." style="rounded=0;whiteSpace=wrap;html=1;fillColor=#d5e8d4;strokeColor=#82b366;" parent="40BiTgnXR5nXwLaclg4I-5" vertex="1">
          <mxGeometry x="110" y="120" width="80" height="40" as="geometry" />
        </mxCell>
        <mxCell id="40BiTgnXR5nXwLaclg4I-10" style="edgeStyle=orthogonalEdgeStyle;rounded=0;orthogonalLoop=1;jettySize=auto;html=1;exitX=0.5;exitY=1;exitDx=0;exitDy=0;entryX=0.5;entryY=0;entryDx=0;entryDy=0;" parent="URROGnMtyPQ05QQZQxgK-1" source="40BiTgnXR5nXwLaclg4I-13" target="40BiTgnXR5nXwLaclg4I-0" edge="1">
          <mxGeometry relative="1" as="geometry" />
        </mxCell>
        <mxCell id="40BiTgnXR5nXwLaclg4I-11" style="edgeStyle=orthogonalEdgeStyle;rounded=0;orthogonalLoop=1;jettySize=auto;html=1;exitX=0.5;exitY=1;exitDx=0;exitDy=0;" parent="URROGnMtyPQ05QQZQxgK-1" source="40BiTgnXR5nXwLaclg4I-13" target="40BiTgnXR5nXwLaclg4I-5" edge="1">
          <mxGeometry relative="1" as="geometry" />
        </mxCell>
        <mxCell id="40BiTgnXR5nXwLaclg4I-12" value="根据云函数类型转发" style="edgeLabel;html=1;align=center;verticalAlign=middle;resizable=0;points=[];" parent="40BiTgnXR5nXwLaclg4I-11" vertex="1" connectable="0">
          <mxGeometry x="-0.7767" y="-1" relative="1" as="geometry">
            <mxPoint x="56" as="offset" />
          </mxGeometry>
        </mxCell>
        <mxCell id="40BiTgnXR5nXwLaclg4I-13" value="云函数网关" style="rounded=0;whiteSpace=wrap;html=1;fillColor=#d5e8d4;strokeColor=#82b366;" parent="URROGnMtyPQ05QQZQxgK-1" vertex="1">
          <mxGeometry x="220" y="50" width="210" height="60" as="geometry" />
        </mxCell>
        <mxCell id="40BiTgnXR5nXwLaclg4I-14" style="edgeStyle=orthogonalEdgeStyle;rounded=0;orthogonalLoop=1;jettySize=auto;html=1;exitX=0.5;exitY=1;exitDx=0;exitDy=0;entryX=0.5;entryY=0;entryDx=0;entryDy=0;" parent="URROGnMtyPQ05QQZQxgK-1" source="40BiTgnXR5nXwLaclg4I-16" target="40BiTgnXR5nXwLaclg4I-13" edge="1">
          <mxGeometry relative="1" as="geometry" />
        </mxCell>
        <mxCell id="40BiTgnXR5nXwLaclg4I-15" value="根据租户+接口配置转发" style="edgeLabel;html=1;align=center;verticalAlign=middle;resizable=0;points=[];" parent="40BiTgnXR5nXwLaclg4I-14" vertex="1" connectable="0">
          <mxGeometry x="-0.2" relative="1" as="geometry">
            <mxPoint x="65" y="6" as="offset" />
          </mxGeometry>
        </mxCell>
        <mxCell id="40BiTgnXR5nXwLaclg4I-16" value="NGES网关" style="rounded=0;whiteSpace=wrap;html=1;fillColor=#dae8fc;strokeColor=#6c8ebf;" parent="URROGnMtyPQ05QQZQxgK-1" vertex="1">
          <mxGeometry x="220" y="-70" width="210" height="60" as="geometry" />
        </mxCell>
        <mxCell id="40BiTgnXR5nXwLaclg4I-17" style="edgeStyle=orthogonalEdgeStyle;rounded=0;orthogonalLoop=1;jettySize=auto;html=1;exitX=0.5;exitY=0.5;exitDx=0;exitDy=0;exitPerimeter=0;" parent="URROGnMtyPQ05QQZQxgK-1" source="40BiTgnXR5nXwLaclg4I-19" target="40BiTgnXR5nXwLaclg4I-16" edge="1">
          <mxGeometry relative="1" as="geometry" />
        </mxCell>
        <mxCell id="40BiTgnXR5nXwLaclg4I-18" value="" style="edgeStyle=orthogonalEdgeStyle;rounded=0;orthogonalLoop=1;jettySize=auto;html=1;" parent="URROGnMtyPQ05QQZQxgK-1" source="40BiTgnXR5nXwLaclg4I-19" target="40BiTgnXR5nXwLaclg4I-16" edge="1">
          <mxGeometry relative="1" as="geometry" />
        </mxCell>
        <mxCell id="40BiTgnXR5nXwLaclg4I-19" value="用户" style="shape=umlActor;verticalLabelPosition=bottom;verticalAlign=top;html=1;outlineConnect=0;" parent="URROGnMtyPQ05QQZQxgK-1" vertex="1">
          <mxGeometry x="310" y="-200" width="30" height="60" as="geometry" />
        </mxCell>
        <mxCell id="40BiTgnXR5nXwLaclg4I-20" value="" style="endArrow=none;dashed=1;html=1;" parent="URROGnMtyPQ05QQZQxgK-1" edge="1">
          <mxGeometry width="50" height="50" relative="1" as="geometry">
            <mxPoint x="60" y="430" as="sourcePoint" />
            <mxPoint x="60" y="-220" as="targetPoint" />
          </mxGeometry>
        </mxCell>
        <mxCell id="40BiTgnXR5nXwLaclg4I-21" style="edgeStyle=orthogonalEdgeStyle;rounded=0;orthogonalLoop=1;jettySize=auto;html=1;exitX=0.5;exitY=1;exitDx=0;exitDy=0;" parent="URROGnMtyPQ05QQZQxgK-1" source="40BiTgnXR5nXwLaclg4I-23" target="40BiTgnXR5nXwLaclg4I-33" edge="1">
          <mxGeometry relative="1" as="geometry" />
        </mxCell>
        <mxCell id="40BiTgnXR5nXwLaclg4I-22" value="代码拉取、提交和部署" style="edgeLabel;html=1;align=center;verticalAlign=middle;resizable=0;points=[];" parent="40BiTgnXR5nXwLaclg4I-21" vertex="1" connectable="0">
          <mxGeometry x="-0.7778" y="1" relative="1" as="geometry">
            <mxPoint x="73" as="offset" />
          </mxGeometry>
        </mxCell>
        <mxCell id="40BiTgnXR5nXwLaclg4I-23" value="faas-cli" style="rounded=0;whiteSpace=wrap;html=1;fillColor=#d5e8d4;strokeColor=#82b366;" parent="URROGnMtyPQ05QQZQxgK-1" vertex="1">
          <mxGeometry x="-260" y="-60" width="130" height="60" as="geometry" />
        </mxCell>
        <mxCell id="40BiTgnXR5nXwLaclg4I-24" style="edgeStyle=orthogonalEdgeStyle;rounded=0;orthogonalLoop=1;jettySize=auto;html=1;exitX=0.5;exitY=1;exitDx=0;exitDy=0;entryX=0.5;entryY=0;entryDx=0;entryDy=0;" parent="URROGnMtyPQ05QQZQxgK-1" source="40BiTgnXR5nXwLaclg4I-25" target="40BiTgnXR5nXwLaclg4I-33" edge="1">
          <mxGeometry relative="1" as="geometry" />
        </mxCell>
        <mxCell id="40BiTgnXR5nXwLaclg4I-25" value="vscode插件" style="rounded=0;whiteSpace=wrap;html=1;fillColor=#d5e8d4;strokeColor=#82b366;" parent="URROGnMtyPQ05QQZQxgK-1" vertex="1">
          <mxGeometry x="-110" y="-60" width="130" height="60" as="geometry" />
        </mxCell>
        <mxCell id="40BiTgnXR5nXwLaclg4I-26" style="edgeStyle=orthogonalEdgeStyle;rounded=0;orthogonalLoop=1;jettySize=auto;html=1;exitX=0.5;exitY=0.5;exitDx=0;exitDy=0;exitPerimeter=0;" parent="URROGnMtyPQ05QQZQxgK-1" source="40BiTgnXR5nXwLaclg4I-28" target="40BiTgnXR5nXwLaclg4I-25" edge="1">
          <mxGeometry relative="1" as="geometry" />
        </mxCell>
        <mxCell id="40BiTgnXR5nXwLaclg4I-27" style="edgeStyle=orthogonalEdgeStyle;rounded=0;orthogonalLoop=1;jettySize=auto;html=1;exitX=0.5;exitY=0.5;exitDx=0;exitDy=0;exitPerimeter=0;entryX=0.5;entryY=0;entryDx=0;entryDy=0;" parent="URROGnMtyPQ05QQZQxgK-1" source="40BiTgnXR5nXwLaclg4I-28" target="40BiTgnXR5nXwLaclg4I-23" edge="1">
          <mxGeometry relative="1" as="geometry" />
        </mxCell>
        <mxCell id="40BiTgnXR5nXwLaclg4I-28" value="开发者" style="shape=umlActor;verticalLabelPosition=bottom;verticalAlign=top;html=1;outlineConnect=0;" parent="URROGnMtyPQ05QQZQxgK-1" vertex="1">
          <mxGeometry x="-136" y="-180" width="30" height="60" as="geometry" />
        </mxCell>
        <mxCell id="40BiTgnXR5nXwLaclg4I-29" style="edgeStyle=orthogonalEdgeStyle;rounded=0;orthogonalLoop=1;jettySize=auto;html=1;exitX=0.5;exitY=1;exitDx=0;exitDy=0;" parent="URROGnMtyPQ05QQZQxgK-1" source="40BiTgnXR5nXwLaclg4I-33" target="40BiTgnXR5nXwLaclg4I-38" edge="1">
          <mxGeometry relative="1" as="geometry" />
        </mxCell>
        <mxCell id="40BiTgnXR5nXwLaclg4I-30" value="代码版本管理" style="edgeLabel;html=1;align=center;verticalAlign=middle;resizable=0;points=[];" parent="40BiTgnXR5nXwLaclg4I-29" vertex="1" connectable="0">
          <mxGeometry x="0.7083" y="2" relative="1" as="geometry">
            <mxPoint x="-47" as="offset" />
          </mxGeometry>
        </mxCell>
        <mxCell id="40BiTgnXR5nXwLaclg4I-31" style="edgeStyle=orthogonalEdgeStyle;rounded=0;orthogonalLoop=1;jettySize=auto;html=1;exitX=0.5;exitY=1;exitDx=0;exitDy=0;" parent="URROGnMtyPQ05QQZQxgK-1" source="40BiTgnXR5nXwLaclg4I-33" target="40BiTgnXR5nXwLaclg4I-42" edge="1">
          <mxGeometry relative="1" as="geometry" />
        </mxCell>
        <mxCell id="40BiTgnXR5nXwLaclg4I-32" style="edgeStyle=orthogonalEdgeStyle;rounded=0;orthogonalLoop=1;jettySize=auto;html=1;exitX=0.5;exitY=1;exitDx=0;exitDy=0;entryX=0.5;entryY=0;entryDx=0;entryDy=0;" parent="URROGnMtyPQ05QQZQxgK-1" source="40BiTgnXR5nXwLaclg4I-33" target="40BiTgnXR5nXwLaclg4I-49" edge="1">
          <mxGeometry relative="1" as="geometry" />
        </mxCell>
        <mxCell id="40BiTgnXR5nXwLaclg4I-33" value="管理端" style="rounded=0;whiteSpace=wrap;html=1;fillColor=#d5e8d4;strokeColor=#82b366;" parent="URROGnMtyPQ05QQZQxgK-1" vertex="1">
          <mxGeometry x="-226" y="70" width="210" height="60" as="geometry" />
        </mxCell>
        <mxCell id="40BiTgnXR5nXwLaclg4I-34" style="edgeStyle=orthogonalEdgeStyle;rounded=0;orthogonalLoop=1;jettySize=auto;html=1;exitX=0.5;exitY=0.5;exitDx=0;exitDy=0;exitPerimeter=0;entryX=0;entryY=0.5;entryDx=0;entryDy=0;" parent="URROGnMtyPQ05QQZQxgK-1" source="40BiTgnXR5nXwLaclg4I-35" target="40BiTgnXR5nXwLaclg4I-33" edge="1">
          <mxGeometry relative="1" as="geometry" />
        </mxCell>
        <mxCell id="40BiTgnXR5nXwLaclg4I-35" value="管理员" style="shape=umlActor;verticalLabelPosition=bottom;verticalAlign=top;html=1;outlineConnect=0;" parent="URROGnMtyPQ05QQZQxgK-1" vertex="1">
          <mxGeometry x="-390" y="70" width="30" height="60" as="geometry" />
        </mxCell>
        <mxCell id="40BiTgnXR5nXwLaclg4I-36" style="edgeStyle=orthogonalEdgeStyle;rounded=0;orthogonalLoop=1;jettySize=auto;html=1;exitX=0.5;exitY=1;exitDx=0;exitDy=0;entryX=0.5;entryY=0;entryDx=0;entryDy=0;entryPerimeter=0;" parent="URROGnMtyPQ05QQZQxgK-1" source="40BiTgnXR5nXwLaclg4I-38" target="40BiTgnXR5nXwLaclg4I-39" edge="1">
          <mxGeometry relative="1" as="geometry" />
        </mxCell>
        <mxCell id="40BiTgnXR5nXwLaclg4I-37" value="代码备份、扫描" style="edgeLabel;html=1;align=center;verticalAlign=middle;resizable=0;points=[];" parent="40BiTgnXR5nXwLaclg4I-36" vertex="1" connectable="0">
          <mxGeometry x="0.1667" relative="1" as="geometry">
            <mxPoint x="-51" as="offset" />
          </mxGeometry>
        </mxCell>
        <mxCell id="40BiTgnXR5nXwLaclg4I-38" value="七彩石" style="rounded=0;whiteSpace=wrap;html=1;" parent="URROGnMtyPQ05QQZQxgK-1" vertex="1">
          <mxGeometry x="-260" y="200" width="130" height="60" as="geometry" />
        </mxCell>
        <mxCell id="40BiTgnXR5nXwLaclg4I-39" value="工蜂" style="verticalLabelPosition=bottom;html=1;verticalAlign=top;align=center;strokeColor=none;fillColor=#00BEF2;shape=mxgraph.azure.git_repository;" parent="URROGnMtyPQ05QQZQxgK-1" vertex="1">
          <mxGeometry x="-220" y="320" width="50" height="50" as="geometry" />
        </mxCell>
        <mxCell id="40BiTgnXR5nXwLaclg4I-40" style="edgeStyle=orthogonalEdgeStyle;rounded=0;orthogonalLoop=1;jettySize=auto;html=1;exitX=0.5;exitY=1;exitDx=0;exitDy=0;entryX=0.5;entryY=1;entryDx=0;entryDy=0;" parent="URROGnMtyPQ05QQZQxgK-1" source="40BiTgnXR5nXwLaclg4I-42" target="40BiTgnXR5nXwLaclg4I-0" edge="1">
          <mxGeometry relative="1" as="geometry" />
        </mxCell>
        <mxCell id="40BiTgnXR5nXwLaclg4I-41" style="edgeStyle=orthogonalEdgeStyle;rounded=0;orthogonalLoop=1;jettySize=auto;html=1;exitX=0.5;exitY=1;exitDx=0;exitDy=0;entryX=0.5;entryY=1;entryDx=0;entryDy=0;" parent="URROGnMtyPQ05QQZQxgK-1" source="40BiTgnXR5nXwLaclg4I-42" target="40BiTgnXR5nXwLaclg4I-5" edge="1">
          <mxGeometry relative="1" as="geometry" />
        </mxCell>
        <mxCell id="40BiTgnXR5nXwLaclg4I-42" value="CODING" style="rounded=0;whiteSpace=wrap;html=1;" parent="URROGnMtyPQ05QQZQxgK-1" vertex="1">
          <mxGeometry x="-110" y="200" width="130" height="60" as="geometry" />
        </mxCell>
        <mxCell id="40BiTgnXR5nXwLaclg4I-43" value="" style="rounded=0;whiteSpace=wrap;html=1;fillColor=#dae8fc;strokeColor=#6c8ebf;" parent="URROGnMtyPQ05QQZQxgK-1" vertex="1">
          <mxGeometry x="-430" y="380" width="50" height="20" as="geometry" />
        </mxCell>
        <mxCell id="40BiTgnXR5nXwLaclg4I-44" value="NGES模块" style="edgeLabel;html=1;align=left;verticalAlign=middle;resizable=0;points=[];" parent="URROGnMtyPQ05QQZQxgK-1" vertex="1" connectable="0">
          <mxGeometry x="-370" y="390" as="geometry" />
        </mxCell>
        <mxCell id="40BiTgnXR5nXwLaclg4I-45" value="" style="rounded=0;whiteSpace=wrap;html=1;fillColor=#d5e8d4;strokeColor=#82b366;" parent="URROGnMtyPQ05QQZQxgK-1" vertex="1">
          <mxGeometry x="-430" y="350" width="50" height="20" as="geometry" />
        </mxCell>
        <mxCell id="40BiTgnXR5nXwLaclg4I-46" value="重楼云函数模块" style="edgeLabel;html=1;align=left;verticalAlign=middle;resizable=0;points=[];" parent="URROGnMtyPQ05QQZQxgK-1" vertex="1" connectable="0">
          <mxGeometry x="-370" y="360" as="geometry" />
        </mxCell>
        <mxCell id="40BiTgnXR5nXwLaclg4I-47" value="" style="rounded=0;whiteSpace=wrap;html=1;" parent="URROGnMtyPQ05QQZQxgK-1" vertex="1">
          <mxGeometry x="-430" y="410" width="50" height="20" as="geometry" />
        </mxCell>
        <mxCell id="40BiTgnXR5nXwLaclg4I-48" value="外部系统" style="edgeLabel;html=1;align=left;verticalAlign=middle;resizable=0;points=[];" parent="URROGnMtyPQ05QQZQxgK-1" vertex="1" connectable="0">
          <mxGeometry x="-370" y="420" as="geometry" />
        </mxCell>
        <mxCell id="40BiTgnXR5nXwLaclg4I-49" value="盘古权限系统" style="rounded=0;whiteSpace=wrap;html=1;" parent="URROGnMtyPQ05QQZQxgK-1" vertex="1">
          <mxGeometry x="-410" y="200" width="130" height="60" as="geometry" />
        </mxCell>
        <mxCell id="40BiTgnXR5nXwLaclg4I-50" value="权限控制" style="edgeLabel;html=1;align=center;verticalAlign=middle;resizable=0;points=[];" parent="URROGnMtyPQ05QQZQxgK-1" vertex="1" connectable="0">
          <mxGeometry x="-375" y="180" as="geometry" />
        </mxCell>
      </root>
    </mxGraphModel>
  </diagram>
  <diagram id="XcGJm9aLgPQVTY-j5eRt" name="Page-4">
    <mxGraphModel dx="1697" dy="949" grid="1" gridSize="10" guides="1" tooltips="1" connect="1" arrows="1" fold="1" page="1" pageScale="1" pageWidth="827" pageHeight="1169" math="0" shadow="0">
      <root>
        <mxCell id="rZD4fmsf1Dfpm78xH9wD-0" />
        <mxCell id="rZD4fmsf1Dfpm78xH9wD-1" parent="rZD4fmsf1Dfpm78xH9wD-0" />
        <mxCell id="rZD4fmsf1Dfpm78xH9wD-6" style="edgeStyle=orthogonalEdgeStyle;rounded=0;orthogonalLoop=1;jettySize=auto;html=1;exitX=0.5;exitY=1;exitDx=0;exitDy=0;entryX=0.5;entryY=0;entryDx=0;entryDy=0;fontSize=15;fontColor=default;shadow=0;sketch=1;fillColor=#b1ddf0;strokeColor=#10739e;opacity=70;strokeWidth=1;" edge="1" parent="rZD4fmsf1Dfpm78xH9wD-1" source="rZD4fmsf1Dfpm78xH9wD-2" target="rZD4fmsf1Dfpm78xH9wD-5">
          <mxGeometry relative="1" as="geometry" />
        </mxCell>
        <mxCell id="rZD4fmsf1Dfpm78xH9wD-2" value="docker,k3s,openfaas组件安装" style="rounded=0;whiteSpace=wrap;html=1;shadow=0;labelBorderColor=none;fontSize=15;strokeWidth=1;sketch=1;fillColor=#b1ddf0;strokeColor=#10739e;opacity=70;" vertex="1" parent="rZD4fmsf1Dfpm78xH9wD-1">
          <mxGeometry x="245" y="190" width="150" height="70" as="geometry" />
        </mxCell>
        <mxCell id="rZD4fmsf1Dfpm78xH9wD-9" style="edgeStyle=orthogonalEdgeStyle;rounded=0;orthogonalLoop=1;jettySize=auto;html=1;exitX=0.5;exitY=1;exitDx=0;exitDy=0;entryX=0.5;entryY=0;entryDx=0;entryDy=0;fontSize=15;fontColor=default;shadow=0;sketch=1;fillColor=#b1ddf0;strokeColor=#10739e;opacity=70;strokeWidth=1;" edge="1" parent="rZD4fmsf1Dfpm78xH9wD-1" source="rZD4fmsf1Dfpm78xH9wD-4" target="rZD4fmsf1Dfpm78xH9wD-8">
          <mxGeometry relative="1" as="geometry" />
        </mxCell>
        <mxCell id="rZD4fmsf1Dfpm78xH9wD-4" value="部署云函数网关服务" style="rounded=0;whiteSpace=wrap;html=1;shadow=0;labelBorderColor=none;fontSize=15;strokeWidth=1;sketch=1;fillColor=#b1ddf0;strokeColor=#10739e;opacity=70;" vertex="1" parent="rZD4fmsf1Dfpm78xH9wD-1">
          <mxGeometry x="247.5" y="420" width="145" height="70" as="geometry" />
        </mxCell>
        <mxCell id="rZD4fmsf1Dfpm78xH9wD-7" style="edgeStyle=orthogonalEdgeStyle;rounded=0;orthogonalLoop=1;jettySize=auto;html=1;exitX=0.5;exitY=1;exitDx=0;exitDy=0;fontSize=15;fontColor=default;shadow=0;sketch=1;fillColor=#b1ddf0;strokeColor=#10739e;opacity=70;strokeWidth=1;" edge="1" parent="rZD4fmsf1Dfpm78xH9wD-1" source="rZD4fmsf1Dfpm78xH9wD-5" target="rZD4fmsf1Dfpm78xH9wD-4">
          <mxGeometry relative="1" as="geometry" />
        </mxCell>
        <mxCell id="rZD4fmsf1Dfpm78xH9wD-5" value="迁移云函数数据库" style="rounded=0;whiteSpace=wrap;html=1;shadow=0;labelBorderColor=none;fontSize=15;strokeWidth=1;sketch=1;fillColor=#b1ddf0;strokeColor=#10739e;opacity=70;" vertex="1" parent="rZD4fmsf1Dfpm78xH9wD-1">
          <mxGeometry x="260" y="310" width="120" height="60" as="geometry" />
        </mxCell>
        <mxCell id="rZD4fmsf1Dfpm78xH9wD-11" style="edgeStyle=orthogonalEdgeStyle;rounded=0;orthogonalLoop=1;jettySize=auto;html=1;exitX=0.5;exitY=1;exitDx=0;exitDy=0;entryX=0.5;entryY=0;entryDx=0;entryDy=0;fontSize=15;fontColor=default;shadow=0;sketch=1;fillColor=#b1ddf0;strokeColor=#10739e;opacity=70;strokeWidth=1;" edge="1" parent="rZD4fmsf1Dfpm78xH9wD-1" source="rZD4fmsf1Dfpm78xH9wD-8" target="rZD4fmsf1Dfpm78xH9wD-10">
          <mxGeometry relative="1" as="geometry" />
        </mxCell>
        <mxCell id="rZD4fmsf1Dfpm78xH9wD-8" value="部署业务服务" style="rounded=0;whiteSpace=wrap;html=1;shadow=0;labelBorderColor=none;fontSize=15;strokeWidth=1;sketch=1;fillColor=#b1ddf0;strokeColor=#10739e;opacity=70;" vertex="1" parent="rZD4fmsf1Dfpm78xH9wD-1">
          <mxGeometry x="260" y="540" width="120" height="60" as="geometry" />
        </mxCell>
        <mxCell id="rZD4fmsf1Dfpm78xH9wD-10" value="修改转发配置开关，流量切到私域" style="rounded=0;whiteSpace=wrap;html=1;shadow=0;labelBorderColor=none;fontSize=15;strokeWidth=1;sketch=1;fillColor=#b1ddf0;strokeColor=#10739e;opacity=70;" vertex="1" parent="rZD4fmsf1Dfpm78xH9wD-1">
          <mxGeometry x="250" y="640" width="140" height="60" as="geometry" />
        </mxCell>
      </root>
    </mxGraphModel>
  </diagram>
  <diagram id="p47nkBfZN0Shy5mdTkik" name="Page-5">
    <mxGraphModel dx="1170" dy="654" grid="1" gridSize="10" guides="1" tooltips="1" connect="1" arrows="1" fold="1" page="1" pageScale="1" pageWidth="827" pageHeight="1169" math="0" shadow="0">
      <root>
        <mxCell id="lYn5I4Bmg545soS-uupr-0" />
        <mxCell id="lYn5I4Bmg545soS-uupr-1" parent="lYn5I4Bmg545soS-uupr-0" />
        <mxCell id="lYn5I4Bmg545soS-uupr-2" value="部署到dev" style="rounded=0;whiteSpace=wrap;html=1;shadow=0;labelBorderColor=none;fontSize=15;fontColor=default;strokeColor=default;strokeWidth=1;fillColor=default;gradientColor=none;opacity=70;" vertex="1" parent="lYn5I4Bmg545soS-uupr-1">
          <mxGeometry x="50" y="770" width="120" height="60" as="geometry" />
        </mxCell>
        <mxCell id="lYn5I4Bmg545soS-uupr-6" style="edgeStyle=orthogonalEdgeStyle;rounded=0;sketch=1;orthogonalLoop=1;jettySize=auto;html=1;exitX=0.5;exitY=1;exitDx=0;exitDy=0;entryX=0;entryY=0.5;entryDx=0;entryDy=0;shadow=0;fontSize=15;fontColor=default;strokeWidth=1;opacity=70;" edge="1" parent="lYn5I4Bmg545soS-uupr-1" source="lYn5I4Bmg545soS-uupr-4" target="lYn5I4Bmg545soS-uupr-2">
          <mxGeometry relative="1" as="geometry" />
        </mxCell>
        <mxCell id="lYn5I4Bmg545soS-uupr-4" value="web端" style="rounded=1;whiteSpace=wrap;html=1;shadow=0;labelBorderColor=none;fontSize=15;fontColor=default;strokeColor=default;strokeWidth=1;fillColor=default;gradientColor=none;opacity=70;" vertex="1" parent="lYn5I4Bmg545soS-uupr-1">
          <mxGeometry x="20" y="680" width="120" height="60" as="geometry" />
        </mxCell>
        <mxCell id="lYn5I4Bmg545soS-uupr-5" value="工具集" style="rounded=1;whiteSpace=wrap;html=1;shadow=0;labelBorderColor=none;fontSize=15;fontColor=default;strokeColor=default;strokeWidth=1;fillColor=default;gradientColor=none;opacity=70;" vertex="1" parent="lYn5I4Bmg545soS-uupr-1">
          <mxGeometry x="10" y="850" width="120" height="60" as="geometry" />
        </mxCell>
        <mxCell id="lYn5I4Bmg545soS-uupr-8" value="Dev" style="html=1;shadow=0;dashed=0;align=center;verticalAlign=middle;shape=mxgraph.arrows2.arrow;dy=0;dx=30;notch=30;labelBorderColor=none;fontSize=15;fontColor=default;strokeColor=default;strokeWidth=1;fillColor=default;gradientColor=none;opacity=70;" vertex="1" parent="lYn5I4Bmg545soS-uupr-1">
          <mxGeometry x="210" y="400" width="100" height="60" as="geometry" />
        </mxCell>
        <mxCell id="lYn5I4Bmg545soS-uupr-9" value="Test" style="html=1;shadow=0;dashed=0;align=center;verticalAlign=middle;shape=mxgraph.arrows2.arrow;dy=0;dx=30;notch=30;labelBorderColor=none;fontSize=15;fontColor=default;strokeColor=default;strokeWidth=1;fillColor=default;gradientColor=none;opacity=70;" vertex="1" parent="lYn5I4Bmg545soS-uupr-1">
          <mxGeometry x="300" y="400" width="100" height="60" as="geometry" />
        </mxCell>
        <mxCell id="lYn5I4Bmg545soS-uupr-10" value="Pre" style="html=1;shadow=0;dashed=0;align=center;verticalAlign=middle;shape=mxgraph.arrows2.arrow;dy=0;dx=30;notch=30;labelBorderColor=none;fontSize=15;fontColor=default;strokeColor=default;strokeWidth=1;fillColor=default;gradientColor=none;opacity=70;" vertex="1" parent="lYn5I4Bmg545soS-uupr-1">
          <mxGeometry x="390" y="400" width="100" height="60" as="geometry" />
        </mxCell>
        <mxCell id="lYn5I4Bmg545soS-uupr-11" value="Prod" style="html=1;shadow=0;dashed=0;align=center;verticalAlign=middle;shape=mxgraph.arrows2.arrow;dy=0;dx=30;notch=30;labelBorderColor=none;fontSize=15;fontColor=default;strokeColor=default;strokeWidth=1;fillColor=default;gradientColor=none;opacity=70;" vertex="1" parent="lYn5I4Bmg545soS-uupr-1">
          <mxGeometry x="480" y="400" width="100" height="60" as="geometry" />
        </mxCell>
        <mxCell id="lYn5I4Bmg545soS-uupr-12" value="云函数1 v2.0" style="rounded=0;whiteSpace=wrap;html=1;shadow=0;labelBorderColor=none;fontSize=15;fontColor=default;strokeColor=default;strokeWidth=1;fillColor=default;gradientColor=none;opacity=70;" vertex="1" parent="lYn5I4Bmg545soS-uupr-1">
          <mxGeometry x="40" y="400" width="120" height="60" as="geometry" />
        </mxCell>
        <mxCell id="lYn5I4Bmg545soS-uupr-14" value="Dev" style="html=1;shadow=0;dashed=0;align=center;verticalAlign=middle;shape=mxgraph.arrows2.arrow;dy=0;dx=30;notch=30;labelBorderColor=none;fontSize=15;fontColor=default;strokeColor=default;strokeWidth=1;fillColor=default;gradientColor=none;opacity=70;" vertex="1" parent="lYn5I4Bmg545soS-uupr-1">
          <mxGeometry x="210" y="480" width="100" height="60" as="geometry" />
        </mxCell>
        <mxCell id="lYn5I4Bmg545soS-uupr-15" value="Test" style="html=1;shadow=0;dashed=0;align=center;verticalAlign=middle;shape=mxgraph.arrows2.arrow;dy=0;dx=30;notch=30;labelBorderColor=none;fontSize=15;fontColor=default;strokeColor=default;strokeWidth=1;fillColor=default;gradientColor=none;opacity=70;" vertex="1" parent="lYn5I4Bmg545soS-uupr-1">
          <mxGeometry x="300" y="480" width="100" height="60" as="geometry" />
        </mxCell>
        <mxCell id="lYn5I4Bmg545soS-uupr-16" value="Pre" style="html=1;shadow=0;dashed=0;align=center;verticalAlign=middle;shape=mxgraph.arrows2.arrow;dy=0;dx=30;notch=30;labelBorderColor=none;fontSize=15;fontColor=default;strokeColor=default;strokeWidth=1;fillColor=default;gradientColor=none;opacity=70;" vertex="1" parent="lYn5I4Bmg545soS-uupr-1">
          <mxGeometry x="390" y="480" width="100" height="60" as="geometry" />
        </mxCell>
        <mxCell id="lYn5I4Bmg545soS-uupr-17" value="Prod" style="html=1;shadow=0;dashed=0;align=center;verticalAlign=middle;shape=mxgraph.arrows2.arrow;dy=0;dx=30;notch=30;labelBorderColor=none;fontSize=15;fontColor=default;strokeColor=default;strokeWidth=1;fillColor=default;gradientColor=none;opacity=70;" vertex="1" parent="lYn5I4Bmg545soS-uupr-1">
          <mxGeometry x="480" y="480" width="100" height="60" as="geometry" />
        </mxCell>
        <mxCell id="lYn5I4Bmg545soS-uupr-18" value="云函数2" style="rounded=0;whiteSpace=wrap;html=1;shadow=0;labelBorderColor=none;fontSize=15;fontColor=default;strokeColor=default;strokeWidth=1;fillColor=default;gradientColor=none;opacity=70;" vertex="1" parent="lYn5I4Bmg545soS-uupr-1">
          <mxGeometry x="40" y="480" width="120" height="60" as="geometry" />
        </mxCell>
        <mxCell id="lYn5I4Bmg545soS-uupr-32" value="" style="shape=table;startSize=0;container=1;collapsible=0;childLayout=tableLayout;shadow=0;labelBorderColor=none;fontSize=15;fontColor=default;strokeColor=default;strokeWidth=1;fillColor=default;gradientColor=none;opacity=70;" vertex="1" parent="lYn5I4Bmg545soS-uupr-1">
          <mxGeometry x="280" y="660" width="300" height="160" as="geometry" />
        </mxCell>
        <mxCell id="lYn5I4Bmg545soS-uupr-33" value="" style="shape=tableRow;horizontal=0;startSize=0;swimlaneHead=0;swimlaneBody=0;top=0;left=0;bottom=0;right=0;collapsible=0;dropTarget=0;fillColor=none;points=[[0,0.5],[1,0.5]];portConstraint=eastwest;shadow=0;labelBorderColor=none;fontSize=15;fontColor=default;strokeColor=default;strokeWidth=1;opacity=70;" vertex="1" parent="lYn5I4Bmg545soS-uupr-32">
          <mxGeometry width="300" height="40" as="geometry" />
        </mxCell>
        <mxCell id="lYn5I4Bmg545soS-uupr-34" value="" style="shape=partialRectangle;html=1;whiteSpace=wrap;connectable=0;overflow=hidden;fillColor=none;top=0;left=0;bottom=0;right=0;pointerEvents=1;shadow=0;labelBorderColor=none;fontSize=15;fontColor=default;strokeColor=default;strokeWidth=1;opacity=70;" vertex="1" parent="lYn5I4Bmg545soS-uupr-33">
          <mxGeometry width="60" height="40" as="geometry">
            <mxRectangle width="60" height="40" as="alternateBounds" />
          </mxGeometry>
        </mxCell>
        <mxCell id="lYn5I4Bmg545soS-uupr-35" value="Dev" style="shape=partialRectangle;html=1;whiteSpace=wrap;connectable=0;overflow=hidden;fillColor=none;top=0;left=0;bottom=0;right=0;pointerEvents=1;shadow=0;labelBorderColor=none;fontSize=15;fontColor=default;strokeColor=default;strokeWidth=1;opacity=70;" vertex="1" parent="lYn5I4Bmg545soS-uupr-33">
          <mxGeometry x="60" width="60" height="40" as="geometry">
            <mxRectangle width="60" height="40" as="alternateBounds" />
          </mxGeometry>
        </mxCell>
        <mxCell id="lYn5I4Bmg545soS-uupr-36" value="Test" style="shape=partialRectangle;html=1;whiteSpace=wrap;connectable=0;overflow=hidden;fillColor=none;top=0;left=0;bottom=0;right=0;pointerEvents=1;shadow=0;labelBorderColor=none;fontSize=15;fontColor=default;strokeColor=default;strokeWidth=1;opacity=70;" vertex="1" parent="lYn5I4Bmg545soS-uupr-33">
          <mxGeometry x="120" width="60" height="40" as="geometry">
            <mxRectangle width="60" height="40" as="alternateBounds" />
          </mxGeometry>
        </mxCell>
        <mxCell id="lYn5I4Bmg545soS-uupr-37" value="Pre" style="shape=partialRectangle;html=1;whiteSpace=wrap;connectable=0;overflow=hidden;fillColor=none;top=0;left=0;bottom=0;right=0;pointerEvents=1;shadow=0;labelBorderColor=none;fontSize=15;fontColor=default;strokeColor=default;strokeWidth=1;opacity=70;" vertex="1" parent="lYn5I4Bmg545soS-uupr-33">
          <mxGeometry x="180" width="60" height="40" as="geometry">
            <mxRectangle width="60" height="40" as="alternateBounds" />
          </mxGeometry>
        </mxCell>
        <mxCell id="lYn5I4Bmg545soS-uupr-38" value="Prod" style="shape=partialRectangle;html=1;whiteSpace=wrap;connectable=0;overflow=hidden;fillColor=none;top=0;left=0;bottom=0;right=0;pointerEvents=1;shadow=0;labelBorderColor=none;fontSize=15;fontColor=default;strokeColor=default;strokeWidth=1;opacity=70;" vertex="1" parent="lYn5I4Bmg545soS-uupr-33">
          <mxGeometry x="240" width="60" height="40" as="geometry">
            <mxRectangle width="60" height="40" as="alternateBounds" />
          </mxGeometry>
        </mxCell>
        <mxCell id="lYn5I4Bmg545soS-uupr-39" value="" style="shape=tableRow;horizontal=0;startSize=0;swimlaneHead=0;swimlaneBody=0;top=0;left=0;bottom=0;right=0;collapsible=0;dropTarget=0;fillColor=none;points=[[0,0.5],[1,0.5]];portConstraint=eastwest;shadow=0;labelBorderColor=none;fontSize=15;fontColor=default;strokeColor=default;strokeWidth=1;opacity=70;" vertex="1" parent="lYn5I4Bmg545soS-uupr-32">
          <mxGeometry y="40" width="300" height="40" as="geometry" />
        </mxCell>
        <mxCell id="lYn5I4Bmg545soS-uupr-40" value="get" style="shape=partialRectangle;html=1;whiteSpace=wrap;connectable=0;overflow=hidden;fillColor=none;top=0;left=0;bottom=0;right=0;pointerEvents=1;shadow=0;labelBorderColor=none;fontSize=15;fontColor=default;strokeColor=default;strokeWidth=1;opacity=70;" vertex="1" parent="lYn5I4Bmg545soS-uupr-39">
          <mxGeometry width="60" height="40" as="geometry">
            <mxRectangle width="60" height="40" as="alternateBounds" />
          </mxGeometry>
        </mxCell>
        <mxCell id="lYn5I4Bmg545soS-uupr-41" value="v1" style="shape=partialRectangle;html=1;whiteSpace=wrap;connectable=0;overflow=hidden;fillColor=none;top=0;left=0;bottom=0;right=0;pointerEvents=1;shadow=0;labelBorderColor=none;fontSize=15;fontColor=default;strokeColor=default;strokeWidth=1;opacity=70;" vertex="1" parent="lYn5I4Bmg545soS-uupr-39">
          <mxGeometry x="60" width="60" height="40" as="geometry">
            <mxRectangle width="60" height="40" as="alternateBounds" />
          </mxGeometry>
        </mxCell>
        <mxCell id="lYn5I4Bmg545soS-uupr-42" value="v2" style="shape=partialRectangle;html=1;whiteSpace=wrap;connectable=0;overflow=hidden;fillColor=none;top=0;left=0;bottom=0;right=0;pointerEvents=1;shadow=0;labelBorderColor=none;fontSize=15;fontColor=default;strokeColor=default;strokeWidth=1;opacity=70;" vertex="1" parent="lYn5I4Bmg545soS-uupr-39">
          <mxGeometry x="120" width="60" height="40" as="geometry">
            <mxRectangle width="60" height="40" as="alternateBounds" />
          </mxGeometry>
        </mxCell>
        <mxCell id="lYn5I4Bmg545soS-uupr-43" value="v3" style="shape=partialRectangle;html=1;whiteSpace=wrap;connectable=0;overflow=hidden;fillColor=none;top=0;left=0;bottom=0;right=0;pointerEvents=1;shadow=0;labelBorderColor=none;fontSize=15;fontColor=default;strokeColor=default;strokeWidth=1;opacity=70;" vertex="1" parent="lYn5I4Bmg545soS-uupr-39">
          <mxGeometry x="180" width="60" height="40" as="geometry">
            <mxRectangle width="60" height="40" as="alternateBounds" />
          </mxGeometry>
        </mxCell>
        <mxCell id="lYn5I4Bmg545soS-uupr-44" value="v4" style="shape=partialRectangle;html=1;whiteSpace=wrap;connectable=0;overflow=hidden;fillColor=none;top=0;left=0;bottom=0;right=0;pointerEvents=1;shadow=0;labelBorderColor=none;fontSize=15;fontColor=default;strokeColor=default;strokeWidth=1;opacity=70;" vertex="1" parent="lYn5I4Bmg545soS-uupr-39">
          <mxGeometry x="240" width="60" height="40" as="geometry">
            <mxRectangle width="60" height="40" as="alternateBounds" />
          </mxGeometry>
        </mxCell>
        <mxCell id="lYn5I4Bmg545soS-uupr-45" value="" style="shape=tableRow;horizontal=0;startSize=0;swimlaneHead=0;swimlaneBody=0;top=0;left=0;bottom=0;right=0;collapsible=0;dropTarget=0;fillColor=none;points=[[0,0.5],[1,0.5]];portConstraint=eastwest;shadow=0;labelBorderColor=none;fontSize=15;fontColor=default;strokeColor=default;strokeWidth=1;opacity=70;" vertex="1" parent="lYn5I4Bmg545soS-uupr-32">
          <mxGeometry y="80" width="300" height="40" as="geometry" />
        </mxCell>
        <mxCell id="lYn5I4Bmg545soS-uupr-46" value="set" style="shape=partialRectangle;html=1;whiteSpace=wrap;connectable=0;overflow=hidden;fillColor=none;top=0;left=0;bottom=0;right=0;pointerEvents=1;shadow=0;labelBorderColor=none;fontSize=15;fontColor=default;strokeColor=default;strokeWidth=1;opacity=70;" vertex="1" parent="lYn5I4Bmg545soS-uupr-45">
          <mxGeometry width="60" height="40" as="geometry">
            <mxRectangle width="60" height="40" as="alternateBounds" />
          </mxGeometry>
        </mxCell>
        <mxCell id="lYn5I4Bmg545soS-uupr-47" value="" style="shape=partialRectangle;html=1;whiteSpace=wrap;connectable=0;overflow=hidden;fillColor=none;top=0;left=0;bottom=0;right=0;pointerEvents=1;shadow=0;labelBorderColor=none;fontSize=15;fontColor=default;strokeColor=default;strokeWidth=1;opacity=70;" vertex="1" parent="lYn5I4Bmg545soS-uupr-45">
          <mxGeometry x="60" width="60" height="40" as="geometry">
            <mxRectangle width="60" height="40" as="alternateBounds" />
          </mxGeometry>
        </mxCell>
        <mxCell id="lYn5I4Bmg545soS-uupr-48" value="" style="shape=partialRectangle;html=1;whiteSpace=wrap;connectable=0;overflow=hidden;fillColor=none;top=0;left=0;bottom=0;right=0;pointerEvents=1;shadow=0;labelBorderColor=none;fontSize=15;fontColor=default;strokeColor=default;strokeWidth=1;opacity=70;" vertex="1" parent="lYn5I4Bmg545soS-uupr-45">
          <mxGeometry x="120" width="60" height="40" as="geometry">
            <mxRectangle width="60" height="40" as="alternateBounds" />
          </mxGeometry>
        </mxCell>
        <mxCell id="lYn5I4Bmg545soS-uupr-49" value="" style="shape=partialRectangle;html=1;whiteSpace=wrap;connectable=0;overflow=hidden;fillColor=none;top=0;left=0;bottom=0;right=0;pointerEvents=1;shadow=0;labelBorderColor=none;fontSize=15;fontColor=default;strokeColor=default;strokeWidth=1;opacity=70;" vertex="1" parent="lYn5I4Bmg545soS-uupr-45">
          <mxGeometry x="180" width="60" height="40" as="geometry">
            <mxRectangle width="60" height="40" as="alternateBounds" />
          </mxGeometry>
        </mxCell>
        <mxCell id="lYn5I4Bmg545soS-uupr-50" value="" style="shape=partialRectangle;html=1;whiteSpace=wrap;connectable=0;overflow=hidden;fillColor=none;top=0;left=0;bottom=0;right=0;pointerEvents=1;shadow=0;labelBorderColor=none;fontSize=15;fontColor=default;strokeColor=default;strokeWidth=1;opacity=70;" vertex="1" parent="lYn5I4Bmg545soS-uupr-45">
          <mxGeometry x="240" width="60" height="40" as="geometry">
            <mxRectangle width="60" height="40" as="alternateBounds" />
          </mxGeometry>
        </mxCell>
        <mxCell id="lYn5I4Bmg545soS-uupr-51" value="" style="shape=tableRow;horizontal=0;startSize=0;swimlaneHead=0;swimlaneBody=0;top=0;left=0;bottom=0;right=0;collapsible=0;dropTarget=0;fillColor=none;points=[[0,0.5],[1,0.5]];portConstraint=eastwest;shadow=0;labelBorderColor=none;fontSize=15;fontColor=default;strokeColor=default;strokeWidth=1;opacity=70;" vertex="1" parent="lYn5I4Bmg545soS-uupr-32">
          <mxGeometry y="120" width="300" height="40" as="geometry" />
        </mxCell>
        <mxCell id="lYn5I4Bmg545soS-uupr-52" value="upd" style="shape=partialRectangle;html=1;whiteSpace=wrap;connectable=0;overflow=hidden;fillColor=none;top=0;left=0;bottom=0;right=0;pointerEvents=1;shadow=0;labelBorderColor=none;fontSize=15;fontColor=default;strokeColor=default;strokeWidth=1;opacity=70;" vertex="1" parent="lYn5I4Bmg545soS-uupr-51">
          <mxGeometry width="60" height="40" as="geometry">
            <mxRectangle width="60" height="40" as="alternateBounds" />
          </mxGeometry>
        </mxCell>
        <mxCell id="lYn5I4Bmg545soS-uupr-53" value="" style="shape=partialRectangle;html=1;whiteSpace=wrap;connectable=0;overflow=hidden;fillColor=none;top=0;left=0;bottom=0;right=0;pointerEvents=1;shadow=0;labelBorderColor=none;fontSize=15;fontColor=default;strokeColor=default;strokeWidth=1;opacity=70;" vertex="1" parent="lYn5I4Bmg545soS-uupr-51">
          <mxGeometry x="60" width="60" height="40" as="geometry">
            <mxRectangle width="60" height="40" as="alternateBounds" />
          </mxGeometry>
        </mxCell>
        <mxCell id="lYn5I4Bmg545soS-uupr-54" value="" style="shape=partialRectangle;html=1;whiteSpace=wrap;connectable=0;overflow=hidden;fillColor=none;top=0;left=0;bottom=0;right=0;pointerEvents=1;shadow=0;labelBorderColor=none;fontSize=15;fontColor=default;strokeColor=default;strokeWidth=1;opacity=70;" vertex="1" parent="lYn5I4Bmg545soS-uupr-51">
          <mxGeometry x="120" width="60" height="40" as="geometry">
            <mxRectangle width="60" height="40" as="alternateBounds" />
          </mxGeometry>
        </mxCell>
        <mxCell id="lYn5I4Bmg545soS-uupr-55" value="" style="shape=partialRectangle;html=1;whiteSpace=wrap;connectable=0;overflow=hidden;fillColor=none;top=0;left=0;bottom=0;right=0;pointerEvents=1;shadow=0;labelBorderColor=none;fontSize=15;fontColor=default;strokeColor=default;strokeWidth=1;opacity=70;" vertex="1" parent="lYn5I4Bmg545soS-uupr-51">
          <mxGeometry x="180" width="60" height="40" as="geometry">
            <mxRectangle width="60" height="40" as="alternateBounds" />
          </mxGeometry>
        </mxCell>
        <mxCell id="lYn5I4Bmg545soS-uupr-56" value="" style="shape=partialRectangle;html=1;whiteSpace=wrap;connectable=0;overflow=hidden;fillColor=none;top=0;left=0;bottom=0;right=0;pointerEvents=1;shadow=0;labelBorderColor=none;fontSize=15;fontColor=default;strokeColor=default;strokeWidth=1;opacity=70;" vertex="1" parent="lYn5I4Bmg545soS-uupr-51">
          <mxGeometry x="240" width="60" height="40" as="geometry">
            <mxRectangle width="60" height="40" as="alternateBounds" />
          </mxGeometry>
        </mxCell>
        <mxCell id="lYn5I4Bmg545soS-uupr-57" value="Dev" style="html=1;shadow=0;dashed=0;align=center;verticalAlign=middle;shape=mxgraph.arrows2.arrow;dy=0;dx=30;notch=30;labelBorderColor=none;fontSize=15;fontColor=default;strokeColor=default;strokeWidth=1;fillColor=default;gradientColor=none;opacity=70;" vertex="1" parent="lYn5I4Bmg545soS-uupr-1">
          <mxGeometry x="210" y="320" width="100" height="60" as="geometry" />
        </mxCell>
        <mxCell id="lYn5I4Bmg545soS-uupr-58" value="Test" style="html=1;shadow=0;dashed=0;align=center;verticalAlign=middle;shape=mxgraph.arrows2.arrow;dy=0;dx=30;notch=30;labelBorderColor=none;fontSize=15;fontColor=default;strokeColor=default;strokeWidth=1;fillColor=default;gradientColor=none;opacity=70;" vertex="1" parent="lYn5I4Bmg545soS-uupr-1">
          <mxGeometry x="300" y="320" width="100" height="60" as="geometry" />
        </mxCell>
        <mxCell id="lYn5I4Bmg545soS-uupr-59" value="Pre" style="html=1;shadow=0;dashed=0;align=center;verticalAlign=middle;shape=mxgraph.arrows2.arrow;dy=0;dx=30;notch=30;labelBorderColor=none;fontSize=15;fontColor=default;strokeColor=default;strokeWidth=1;fillColor=default;gradientColor=none;opacity=70;" vertex="1" parent="lYn5I4Bmg545soS-uupr-1">
          <mxGeometry x="390" y="320" width="100" height="60" as="geometry" />
        </mxCell>
        <mxCell id="lYn5I4Bmg545soS-uupr-60" value="Prod" style="html=1;shadow=0;dashed=0;align=center;verticalAlign=middle;shape=mxgraph.arrows2.arrow;dy=0;dx=30;notch=30;labelBorderColor=none;fontSize=15;fontColor=default;strokeColor=default;strokeWidth=1;fillColor=default;gradientColor=none;opacity=70;" vertex="1" parent="lYn5I4Bmg545soS-uupr-1">
          <mxGeometry x="480" y="320" width="100" height="60" as="geometry" />
        </mxCell>
        <mxCell id="lYn5I4Bmg545soS-uupr-61" value="云函数1 v1.0" style="rounded=0;whiteSpace=wrap;html=1;shadow=0;labelBorderColor=none;fontSize=15;fontColor=default;strokeColor=default;strokeWidth=1;fillColor=default;gradientColor=none;opacity=70;" vertex="1" parent="lYn5I4Bmg545soS-uupr-1">
          <mxGeometry x="40" y="320" width="120" height="60" as="geometry" />
        </mxCell>
        <mxCell id="lYn5I4Bmg545soS-uupr-89" value="Pool" style="swimlane;childLayout=stackLayout;resizeParent=1;resizeParentMax=0;horizontal=1;startSize=20;horizontalStack=0;shadow=0;labelBorderColor=none;sketch=0;fontSize=15;fontColor=default;strokeColor=default;strokeWidth=1;fillColor=default;gradientColor=none;opacity=70;" vertex="1" parent="lYn5I4Bmg545soS-uupr-1">
          <mxGeometry x="190" y="860" width="480" height="380" as="geometry" />
        </mxCell>
        <mxCell id="lYn5I4Bmg545soS-uupr-90" value="云函数1" style="swimlane;startSize=20;horizontal=0;shadow=0;labelBorderColor=none;sketch=0;fontSize=15;fontColor=default;strokeColor=default;strokeWidth=1;fillColor=default;gradientColor=none;opacity=70;" vertex="1" parent="lYn5I4Bmg545soS-uupr-89">
          <mxGeometry y="20" width="480" height="120" as="geometry" />
        </mxCell>
        <mxCell id="lYn5I4Bmg545soS-uupr-88" value="" style="html=1;shadow=0;dashed=0;align=center;verticalAlign=middle;shape=mxgraph.arrows2.arrow;dy=0;dx=30;notch=30;labelBorderColor=none;fontSize=15;strokeColor=#B09500;strokeWidth=1;fillColor=#e3c800;opacity=70;fontColor=#000000;" vertex="1" parent="lYn5I4Bmg545soS-uupr-90">
          <mxGeometry x="50" y="30" width="100" height="60" as="geometry" />
        </mxCell>
        <mxCell id="lYn5I4Bmg545soS-uupr-93" value="v2" style="html=1;shadow=0;dashed=0;align=center;verticalAlign=middle;shape=mxgraph.arrows2.arrow;dy=0;dx=30;notch=30;labelBorderColor=none;fontSize=15;strokeColor=#BD7000;strokeWidth=1;fillColor=#f0a30a;opacity=70;fontColor=#000000;" vertex="1" parent="lYn5I4Bmg545soS-uupr-90">
          <mxGeometry x="160" y="30" width="100" height="60" as="geometry" />
        </mxCell>
        <mxCell id="lYn5I4Bmg545soS-uupr-94" value="v1" style="html=1;shadow=0;dashed=0;align=center;verticalAlign=middle;shape=mxgraph.arrows2.arrow;dy=0;dx=30;notch=30;labelBorderColor=none;fontSize=15;strokeColor=#C73500;strokeWidth=1;fillColor=#fa6800;opacity=70;fontColor=#000000;" vertex="1" parent="lYn5I4Bmg545soS-uupr-90">
          <mxGeometry x="260" y="30" width="100" height="60" as="geometry" />
        </mxCell>
        <mxCell id="lYn5I4Bmg545soS-uupr-95" value="" style="html=1;shadow=0;dashed=0;align=center;verticalAlign=middle;shape=mxgraph.arrows2.arrow;dy=0;dx=30;notch=30;labelBorderColor=none;fontSize=15;strokeColor=#B20000;strokeWidth=1;fillColor=#e51400;opacity=70;fontColor=#ffffff;" vertex="1" parent="lYn5I4Bmg545soS-uupr-90">
          <mxGeometry x="360" y="30" width="100" height="60" as="geometry" />
        </mxCell>
        <mxCell id="lYn5I4Bmg545soS-uupr-91" value="云函数2" style="swimlane;startSize=20;horizontal=0;shadow=0;labelBorderColor=none;sketch=0;fontSize=15;fontColor=default;strokeColor=default;strokeWidth=1;fillColor=default;gradientColor=none;opacity=70;" vertex="1" parent="lYn5I4Bmg545soS-uupr-89">
          <mxGeometry y="140" width="480" height="120" as="geometry" />
        </mxCell>
        <mxCell id="lYn5I4Bmg545soS-uupr-108" value="" style="html=1;shadow=0;dashed=0;align=center;verticalAlign=middle;shape=mxgraph.arrows2.arrow;dy=0;dx=30;notch=30;labelBorderColor=none;fontSize=15;strokeColor=#B09500;strokeWidth=1;fillColor=#e3c800;opacity=70;fontColor=#000000;" vertex="1" parent="lYn5I4Bmg545soS-uupr-91">
          <mxGeometry x="50" y="30" width="100" height="60" as="geometry" />
        </mxCell>
        <mxCell id="lYn5I4Bmg545soS-uupr-109" value="" style="html=1;shadow=0;dashed=0;align=center;verticalAlign=middle;shape=mxgraph.arrows2.arrow;dy=0;dx=30;notch=30;labelBorderColor=none;fontSize=15;strokeColor=#BD7000;strokeWidth=1;fillColor=#f0a30a;opacity=70;fontColor=#000000;" vertex="1" parent="lYn5I4Bmg545soS-uupr-91">
          <mxGeometry x="160" y="30" width="100" height="60" as="geometry" />
        </mxCell>
        <mxCell id="lYn5I4Bmg545soS-uupr-110" value="" style="html=1;shadow=0;dashed=0;align=center;verticalAlign=middle;shape=mxgraph.arrows2.arrow;dy=0;dx=30;notch=30;labelBorderColor=none;fontSize=15;strokeColor=#C73500;strokeWidth=1;fillColor=#fa6800;opacity=70;fontColor=#000000;" vertex="1" parent="lYn5I4Bmg545soS-uupr-91">
          <mxGeometry x="260" y="30" width="100" height="60" as="geometry" />
        </mxCell>
        <mxCell id="lYn5I4Bmg545soS-uupr-111" value="" style="html=1;shadow=0;dashed=0;align=center;verticalAlign=middle;shape=mxgraph.arrows2.arrow;dy=0;dx=30;notch=30;labelBorderColor=none;fontSize=15;strokeColor=#B20000;strokeWidth=1;fillColor=#e51400;opacity=70;fontColor=#ffffff;" vertex="1" parent="lYn5I4Bmg545soS-uupr-91">
          <mxGeometry x="360" y="30" width="100" height="60" as="geometry" />
        </mxCell>
        <mxCell id="lYn5I4Bmg545soS-uupr-92" value="云函数3" style="swimlane;startSize=20;horizontal=0;shadow=0;labelBorderColor=none;sketch=0;fontSize=15;fontColor=default;strokeColor=default;strokeWidth=1;fillColor=default;gradientColor=none;opacity=70;" vertex="1" parent="lYn5I4Bmg545soS-uupr-89">
          <mxGeometry y="260" width="480" height="120" as="geometry" />
        </mxCell>
        <mxCell id="lYn5I4Bmg545soS-uupr-112" value="" style="html=1;shadow=0;dashed=0;align=center;verticalAlign=middle;shape=mxgraph.arrows2.arrow;dy=0;dx=30;notch=30;labelBorderColor=none;fontSize=15;strokeColor=#B09500;strokeWidth=1;fillColor=#e3c800;opacity=70;fontColor=#000000;" vertex="1" parent="lYn5I4Bmg545soS-uupr-92">
          <mxGeometry x="50" y="30" width="100" height="60" as="geometry" />
        </mxCell>
        <mxCell id="lYn5I4Bmg545soS-uupr-113" value="" style="html=1;shadow=0;dashed=0;align=center;verticalAlign=middle;shape=mxgraph.arrows2.arrow;dy=0;dx=30;notch=30;labelBorderColor=none;fontSize=15;strokeColor=#BD7000;strokeWidth=1;fillColor=#f0a30a;opacity=70;fontColor=#000000;" vertex="1" parent="lYn5I4Bmg545soS-uupr-92">
          <mxGeometry x="160" y="30" width="100" height="60" as="geometry" />
        </mxCell>
        <mxCell id="lYn5I4Bmg545soS-uupr-114" value="" style="html=1;shadow=0;dashed=0;align=center;verticalAlign=middle;shape=mxgraph.arrows2.arrow;dy=0;dx=30;notch=30;labelBorderColor=none;fontSize=15;strokeColor=#C73500;strokeWidth=1;fillColor=#fa6800;opacity=70;fontColor=#000000;" vertex="1" parent="lYn5I4Bmg545soS-uupr-92">
          <mxGeometry x="260" y="30" width="100" height="60" as="geometry" />
        </mxCell>
        <mxCell id="lYn5I4Bmg545soS-uupr-115" value="" style="html=1;shadow=0;dashed=0;align=center;verticalAlign=middle;shape=mxgraph.arrows2.arrow;dy=0;dx=30;notch=30;labelBorderColor=none;fontSize=15;strokeColor=#B20000;strokeWidth=1;fillColor=#e51400;opacity=70;fontColor=#ffffff;" vertex="1" parent="lYn5I4Bmg545soS-uupr-92">
          <mxGeometry x="360" y="30" width="100" height="60" as="geometry" />
        </mxCell>
        <mxCell id="lYn5I4Bmg545soS-uupr-116" value="Dev" style="rounded=0;whiteSpace=wrap;html=1;shadow=0;labelBorderColor=none;sketch=0;fontSize=15;fontColor=#000000;strokeColor=#B09500;strokeWidth=1;fillColor=#e3c800;opacity=70;" vertex="1" parent="lYn5I4Bmg545soS-uupr-1">
          <mxGeometry x="120" y="1130" width="50" height="20" as="geometry" />
        </mxCell>
        <mxCell id="lYn5I4Bmg545soS-uupr-117" value="Test" style="rounded=0;whiteSpace=wrap;html=1;shadow=0;labelBorderColor=none;sketch=0;fontSize=15;fontColor=#000000;strokeColor=#BD7000;strokeWidth=1;fillColor=#f0a30a;opacity=70;" vertex="1" parent="lYn5I4Bmg545soS-uupr-1">
          <mxGeometry x="120" y="1160" width="50" height="20" as="geometry" />
        </mxCell>
        <mxCell id="lYn5I4Bmg545soS-uupr-118" value="Pre" style="rounded=0;whiteSpace=wrap;html=1;shadow=0;labelBorderColor=none;sketch=0;fontSize=15;fontColor=#000000;strokeColor=#C73500;strokeWidth=1;fillColor=#fa6800;opacity=70;" vertex="1" parent="lYn5I4Bmg545soS-uupr-1">
          <mxGeometry x="120" y="1190" width="50" height="20" as="geometry" />
        </mxCell>
        <mxCell id="lYn5I4Bmg545soS-uupr-119" value="&lt;font color=&quot;#000000&quot;&gt;Prod&lt;/font&gt;" style="rounded=0;whiteSpace=wrap;html=1;shadow=0;labelBorderColor=none;sketch=0;fontSize=15;fontColor=#ffffff;strokeColor=#B20000;strokeWidth=1;fillColor=#e51400;opacity=70;" vertex="1" parent="lYn5I4Bmg545soS-uupr-1">
          <mxGeometry x="120" y="1220" width="50" height="20" as="geometry" />
        </mxCell>
      </root>
    </mxGraphModel>
  </diagram>
</mxfile>
